<svg height="512" viewBox="0 0 512 512" width="512" xmlns="http://www.w3.org/2000/svg"><g id="Gas"><path d="m344 184a88 88 0 1 0 -88 88 88.1 88.1 0 0 0 88-88zm-160 0a72 72 0 1 1 72 72 72.081 72.081 0 0 1 -72-72z"/><path d="m280 184a24.038 24.038 0 0 0 -16.12-22.665 8.043 8.043 0 0 0 .12-1.335v-24a8 8 0 0 0 -16 0v24a8.043 8.043 0 0 0 .12 1.335 24 24 0 1 0 31.88 22.665zm-32 0a8 8 0 1 1 8 8 8.009 8.009 0 0 1 -8-8z"/><path d="m496 360h-104v-16a8 8 0 0 0 -8-8h-48v-16a8 8 0 0 0 -8-8h-32v-23.39a112 112 0 1 0 -80 0v23.39h-32a8 8 0 0 0 -8 8v16h-48a8 8 0 0 0 -8 8v16h-104a8 8 0 0 0 -8 8v48a8 8 0 0 0 8 8h104v16a8 8 0 0 0 8 8h256a8 8 0 0 0 8-8v-16h104a8 8 0 0 0 8-8v-48a8 8 0 0 0 -8-8zm-336-176a96 96 0 1 1 96 96 96.108 96.108 0 0 1 -96-96zm72 109.4a112.2 112.2 0 0 0 48 0v18.6h-48zm-40 34.6h128v8h-128zm-168 80v-32h96v32zm352 24h-240v-80h240zm112-24h-96v-32h96z"/><path d="m200 408h-48a8 8 0 0 0 0 16h48a8 8 0 0 0 0-16z"/><path d="m232 408h-8a8 8 0 0 0 0 16h8a8 8 0 0 0 0-16z"/></g></svg>