<svg id="Слой_1" data-name="Слой 1" xmlns="http://www.w3.org/2000/svg" viewBox="0 0 421.31 375"><defs><style>.cls-1,.cls-5{fill:#fff;}.cls-2{fill:#b1ffbf;}.cls-3,.cls-4{fill:none;stroke-miterlimit:10;}.cls-3{stroke:#000;}.cls-4{stroke:#fff;stroke-width:0.75px;}.cls-5{isolation:isolate;font-size:16px;font-family:ArialMT, Arial;}.cls-6{letter-spacing:-0.07em;}</style></defs><title>62</title><rect class="cls-1" width="10" height="374.5"/><rect class="cls-1" x="139.12" y="1.84" width="10" height="372.46"/><rect class="cls-1" width="418.85" height="10"/><rect class="cls-1" y="190" width="149.12" height="10"/><rect class="cls-1" y="365" width="149.12" height="10"/><rect class="cls-1" x="139.12" y="280.67" width="282.18" height="10"/><rect class="cls-1" x="411.3" width="10" height="289.03"/><rect class="cls-1" x="290.38" y="0.64" width="10" height="286.09"/><rect class="cls-2" x="192.85" width="47.51" height="10"/><line class="cls-3" x1="192.79" y1="3.38" x2="240.29" y2="3.38"/><line class="cls-3" x1="192.79" y1="6.07" x2="240.29" y2="6.07"/><rect class="cls-2" x="179.86" y="280.67" width="77.76" height="10"/><rect class="cls-2" x="312.32" y="280.67" width="49.02" height="10"/><rect class="cls-2" x="46.85" y="365" width="47.51" height="10"/><line class="cls-3" x1="46.79" y1="368.38" x2="94.29" y2="368.38"/><line class="cls-3" x1="46.79" y1="371.07" x2="94.29" y2="371.07"/><rect class="cls-2" y="24.06" width="10" height="47.51"/><line class="cls-3" x1="6.62" y1="24" x2="6.62" y2="71.51"/><line class="cls-3" x1="3.94" y1="24" x2="3.94" y2="71.51"/><rect class="cls-2" y="107.28" width="10" height="47.51"/><line class="cls-3" x1="6.62" y1="107.22" x2="6.62" y2="154.72"/><line class="cls-3" x1="3.94" y1="107.22" x2="3.94" y2="154.72"/><rect class="cls-2" y="253.75" width="10" height="47.51"/><line class="cls-3" x1="6.62" y1="253.68" x2="6.62" y2="301.19"/><line class="cls-3" x1="3.94" y1="253.68" x2="3.94" y2="301.19"/><rect class="cls-2" x="411.3" y="105.13" width="10" height="47.51"/><line class="cls-3" x1="417.92" y1="105.07" x2="417.92" y2="152.57"/><line class="cls-3" x1="415.23" y1="105.07" x2="415.23" y2="152.57"/><rect class="cls-2" x="139.12" y="61.58" width="10" height="47.51"/><rect class="cls-2" x="139.12" y="215.91" width="10" height="47.51"/><polyline class="cls-4" points="148.75 374.62 420.93 374.62 420.93 290.29"/><rect class="cls-2" x="51.38" width="36.66" height="10"/><text class="cls-5" transform="translate(54.74 106.58)"><tspan class="cls-6">1</tspan><tspan x="7.71" y="0">1.6</tspan></text><text class="cls-5" transform="translate(54.74 280.67)">10.8</text><text class="cls-5" transform="translate(201.66 154.79)">23.1</text><text class="cls-5" transform="translate(338.26 140.06)">16.2</text><text class="cls-5" transform="translate(280.21 332.46)">7.70</text></svg>