<?xml version="1.0" encoding="utf-8"?>
<!-- Generator: Adobe Illustrator 23.0.5, SVG Export Plug-In . SVG Version: 6.00 Build 0)  -->
<svg version="1.1" id="Слой_1" xmlns="http://www.w3.org/2000/svg" xmlns:xlink="http://www.w3.org/1999/xlink" x="0px" y="0px"
	 viewBox="0 0 500 500" style="enable-background:new 0 0 500 500;" xml:space="preserve">
<style type="text/css">
	.st0{fill:#FFFFFF;}
	.st1{fill:#B1FFBF;}
	.st2{fill:none;stroke:#000000;stroke-miterlimit:10;}
	.st3{fill:none;stroke:#FFFFFF;stroke-width:0.75;stroke-miterlimit:10;}
	.st4{font-family:'ArialMT';}
	.st5{font-size:16px;}
</style>
<rect x="37.6" y="51" class="st0" width="10" height="374.5"/>
<rect x="176.7" y="52.9" class="st0" width="10" height="372.5"/>
<rect x="37.6" y="51" class="st0" width="418.9" height="10"/>
<rect x="37.6" y="231" class="st0" width="149.1" height="10"/>
<rect x="37.6" y="416" class="st0" width="149.1" height="10"/>
<rect x="176.7" y="331.7" class="st0" width="282.2" height="10"/>
<rect x="448.9" y="51" class="st0" width="10" height="289"/>
<rect x="351" y="51.7" class="st0" width="10" height="184.3"/>
<rect x="351" y="226.4" class="st0" width="105.6" height="10"/>
<rect x="353.4" y="138.3" class="st0" width="102.1" height="10"/>
<rect x="84.5" y="51" class="st1" width="47.5" height="10"/>
<line class="st2" x1="84.4" y1="54.4" x2="131.9" y2="54.4"/>
<line class="st2" x1="84.4" y1="57.1" x2="131.9" y2="57.1"/>
<rect x="213.6" y="331.7" class="st1" width="90.6" height="10"/>
<line class="st2" x1="213.5" y1="335.1" x2="304.1" y2="335.1"/>
<line class="st2" x1="213.5" y1="337.8" x2="304.1" y2="337.8"/>
<rect x="349.9" y="331.7" class="st1" width="64.7" height="10"/>
<line class="st2" x1="349.9" y1="335.1" x2="414.6" y2="335.1"/>
<line class="st2" x1="349.9" y1="337.8" x2="414.6" y2="337.8"/>
<rect x="84.5" y="416" class="st1" width="47.5" height="10"/>
<line class="st2" x1="84.4" y1="419.4" x2="131.9" y2="419.4"/>
<line class="st2" x1="84.4" y1="422.1" x2="131.9" y2="422.1"/>
<rect x="37.6" y="125.1" class="st1" width="10" height="47.5"/>
<line class="st2" x1="44.2" y1="125" x2="44.2" y2="172.6"/>
<line class="st2" x1="41.6" y1="125" x2="41.6" y2="172.6"/>
<rect x="448.9" y="76.2" class="st1" width="10" height="47.5"/>
<line class="st2" x1="455.5" y1="76.1" x2="455.5" y2="123.6"/>
<line class="st2" x1="452.9" y1="76.1" x2="452.9" y2="123.6"/>
<rect x="448.9" y="163.6" class="st1" width="10" height="47.5"/>
<line class="st2" x1="455.5" y1="163.6" x2="455.5" y2="211.1"/>
<line class="st2" x1="452.9" y1="163.6" x2="452.9" y2="211.1"/>
<rect x="37.6" y="313" class="st1" width="10" height="47.5"/>
<line class="st2" x1="44.2" y1="313" x2="44.2" y2="360.5"/>
<line class="st2" x1="41.6" y1="313" x2="41.6" y2="360.5"/>
<rect x="176.7" y="172.6" class="st1" width="10" height="47.5"/>
<rect x="176.7" y="246.9" class="st1" width="10" height="47.5"/>
<rect x="371" y="226.4" class="st1" width="36.7" height="10"/>
<polyline class="st3" points="186.4,425.7 458.5,425.7 458.5,341.3 "/>
<rect x="371" y="51" class="st1" width="36.7" height="10"/>
<text transform="matrix(1 0 0 1 92.36 157.62)" class="st0 st4 st5">13.6</text>
<text transform="matrix(1 0 0 1 92.36 331.71)" class="st0 st4 st5">13.6</text>
<text transform="matrix(1 0 0 1 266.29 205.83)" class="st0 st4 st5">29.2</text>
<text transform="matrix(1 0 0 1 391.88 119.18)" class="st0 st4 st5">6.2</text>
<text transform="matrix(1 0 0 1 391.88 191.1)" class="st0 st4 st5">6.4</text>
<text transform="matrix(1 0 0 1 317.83 383.5)" class="st0 st4 st5">7.46</text>
</svg>
