<?xml version="1.0" encoding="utf-8"?>
<!-- Generator: Adobe Illustrator 22.1.0, SVG Export Plug-In . SVG Version: 6.00 Build 0)  -->
<svg version="1.1" id="Слой_1" xmlns="http://www.w3.org/2000/svg" xmlns:xlink="http://www.w3.org/1999/xlink" x="0px" y="0px"
	 viewBox="0 0 500 500" style="enable-background:new 0 0 500 500; opacity:.6;" xml:space="preserve" >
<g>
	<path fill="#DD9933" d="M457.8,282c0.7,101.7-73.1,189.6-173.7,203.8C157.4,503.6,62.3,411.8,50.3,309.1c-4.7-40.2,1.8-78.1,18.4-114.6
		c1.8-4,3.9-7.8,6.4-11.4c4.9-6.9,10.7-7,15.8-0.3c5.3,6.9,9.8,14.4,15.2,21.2c30,38.1,69.3,62,116.8,68.8
		c75.9,10.8,138-15.3,184.5-76.9c2.9-3.9,5.3-8.3,8.2-12.2c6.2-8.2,12.5-8,17.6,1c3.8,6.6,6.8,13.6,9.8,20.6
		C453.6,231,458.4,257.6,457.8,282z M441.2,308.4c-19.1,1.7-34.1,0.3-47.1-9.4c-16.9-12.7-34-12.8-51.2-0.5
		c-20.6,14.8-42.3,14.1-62.7,1.1c-18.9-12-35.9-12.6-54.2,0.2c-13.6,9.5-29.1,12.2-45.1,6.9c-7.1-2.4-13.6-6.5-20-10.4
		c-14.3-8.8-29.2-10.2-43-0.5c-14.1,9.8-28.9,14.5-45.9,13.4c-1.3-0.1-2.8,1.2-5.2,2.4c1.4,6.8,2.3,13.8,4.1,20.4
		c2.3,8.4,5.7,10.8,14.3,8.9c6.8-1.5,13.8-3.9,19.5-7.7c23-15.5,45.3-16,68,0.3c14.9,10.6,30.6,10.8,45.6,0.3
		c24-16.9,47.4-16,71.1,0.5c14.6,10.2,29.7,9.5,44.1-0.6c23.3-16.4,46.3-16.3,69.5,0c8.7,6.2,18.2,9.3,30.4,6.4
		C435.8,330.5,438.2,320.8,441.2,308.4z M426.6,359.7c-2.7-1.5-4.1-2.8-5.5-3c-11.7-1.1-21.6-5.9-31.3-12.5
		c-15-10.1-31.3-10-45.4,1.6c-16.5,13.7-49.9,13.8-67.2,0.2c-16.2-12.7-30.5-12.2-47.8,0c-12.8,9-26.7,11.5-41.8,10
		c-10.8-1-19.6-6.2-28.1-12.2c-11.8-8.4-25.3-9.7-37-2.6c-13,7.9-25.9,14.9-43.4,16.8c6,10.5,11,19.1,15.3,26.6c2.8,0,3.5,0.2,3.9,0
		c2.4-1.3,4.8-2.5,7.1-4c23-15.5,45.5-14.8,68.1,1.1c14.7,10.3,30.2,10.1,45.6-0.5c22.8-15.8,45.5-16,68.2-0.4
		c16.4,11.2,31.9,10.5,48.3-0.7c20.9-14.4,42.7-14.2,64.3-0.7c3.5,2.2,7.2,4,11.9,6.5C417.2,376.6,421.8,368.3,426.6,359.7z
		 M106.9,400.6c7.1,12.8,15.6,19.7,30.5,17.4c12.3-1.9,23.5,3.1,33.7,9.9c18.9,12.6,31.3,13,49.5,0.7c21.9-14.8,43.7-15.2,65.3-0.1
		c16.9,11.8,33.2,11.8,49.8-0.1c10.5-7.5,22.3-12.5,35.2-10.4c15.4,2.5,22.7-6,29.2-17.1c-21.9-19.3-35.3-20.6-57.5-5.8
		c-20.8,13.9-42.4,14.4-62.7,0.4c-18.1-12.4-34.4-13.3-52.5-0.5c-20.4,14.3-41.7,13.6-62.7,0.5C141.4,380.8,129.2,381.8,106.9,400.6
		z M143.8,435.4c61.4,51.1,163.7,47.7,218.7-1c-6.5,2-13.1,4.2-18.7,7.9c-22.6,15-44.7,15.1-66.8-0.7c-15.6-11.1-31.5-10.8-47,0
		c-22.9,15.9-45.3,16-68.1-0.2C156.8,437.7,151.5,433.5,143.8,435.4z M66.3,259.7c-0.8,8.6-1.5,15-1.9,21.4
		c-0.4,7.2,3.1,10.8,10.4,11.8c12,1.6,22.2-1.9,32-8.8c20.5-14.4,43-14.1,64-0.8c5.9,3.7,12.2,7.3,18.8,9.1
		c6.8,1.8,14.4,2.2,22.3-5.1c-34.3-7.7-63.1-22.2-89.7-42.7C106.1,257.7,88.6,263.5,66.3,259.7z M292.6,287.9
		c16.8,8.3,29.3,6.2,40.5-1.9c23.9-17.2,47.2-16.7,70.7,0.4c7.3,5.3,15.6,7.5,24.6,6.8c12.3-1,15.4-4.4,14.4-16.5
		c-0.4-5.2-1.9-10.3-3.1-16.6c-21.5,3.5-39.6-2.3-55.4-15.5C357.4,266.3,328.2,280,292.6,287.9z M437.7,242.2
		c-4.4-13.9-4.9-27.5-15.5-38.3c-8.6,10.3-16.4,19.7-24.5,29.5C409.5,243.4,421.4,247.9,437.7,242.2z M84.1,203.7
		c-8.3,12.8-13.2,25-13.1,39.5c15.4,4.2,27.2,0.2,38-10.5C100.8,223.2,92.9,214,84.1,203.7z"/>
	<path fill="#DD9933" d="M229.9,29.4c0.6-4.8,1.3-9.5,2-15c12.3-4.3,24.8-2,37-1.7c2.6,0.1,5.9,4,7.4,6.9c1.4,2.6,0.9,6.2,2.9,9.6
		c0.5-2.1,1.5-4.2,1.4-6.3c-0.2-7.7,3.6-10.8,11-10.7c7.6,0.1,15.2,0.1,22.9,0c6.8-0.1,10.2,3.5,10.3,9.9c0.2,14.2,0,28.3,0.1,42.5
		c0.1,5.9-3.5,8.5-8,11.1c-1.4,0.8-2.9,4.2-2.3,5.5c0.9,2,3.4,4.1,5.5,4.7c3.1,0.9,6.5,0.6,9.7,0.4c7.8-0.4,13.6,0.9,15.5,10.4
		c0.6,3.3,5.6,6.1,9,8.5c11.4,8.4,23.3,16,34.3,24.8c11,8.8,11.6,11.2,5.3,23.5c-28.5,55.6-73.9,85.7-136.5,88.2
		c-61.5,2.5-118.9-33-144.4-88.4c-5.7-12.3-5.8-13.9,4.1-22.5c9.1-7.7,18.7-14.9,28.8-21.3c8.8-5.6,17.9-10.2,19.3-22.4
		c8.8-0.7,16.8-1.4,26.8-2.2c-0.8-3.7-0.7-8.9-2.5-9.7c-7.7-3.6-7.5-9.9-7.5-16.5c0-10.9-0.2-21.8,0.1-32.7c0.1-4.2,1.2-8.3,2.1-14
		c9.6,0,18.2-0.1,26.8,0.1c4.2,0.1,8.4,0.7,12.6,1.1c1.5,6.1,2.7,11.3,4,16.5C228.4,29.7,229.1,29.5,229.9,29.4z M162.5,121.9
		c-1.3-0.7-2.6-1.4-3.9-2.1c-10.7,7.8-21.5,15.6-31.8,23.1c18.5,47.9,69.8,84.1,127.7,83.6c60.7-0.4,108.9-40.1,125.4-82.9
		c-9.7-9.2-20.2-17.7-35.4-24.1c0,8.4,0,14.3,0,20.2c0,10.3,0.3,20.7,0,31c-0.3,9.8-2,11.4-11.4,12.1c-5.8,0.5-11.6,0.6-16.8,0.8
		c-4.6,20.2-4.6,20.3-23.6,20.3c-27.2,0.1-54.4,0.1-81.7,0.1c-15.9,0-16.4-0.6-19.1-17.4c-0.2-0.9-1.2-1.7-2.4-3.4
		c-2.6-0.1-5.8-0.3-8.9-0.4c-17.7-0.6-17.8-0.6-17.8-18.8C162.5,150,162.5,135.9,162.5,121.9z M298,75.1
		c-30.5-0.6-59.5-1.5-89.4,0.6c0.1,38.4-0.9,75,0.7,111.7c30.4,0,59,0,89.4,0C298.1,149.6,299.7,113,298,75.1z M258.4,28.9
		c-3.3,0-6.8,0-10.1,0c-4.4,18.3-5.3,19.1-23,18.3c-4.2-0.2-8.3-1.2-12.1-1.8c-3.9-16.8-3.9-16.8-13.8-15.3c0,9.4,0,18.8,0,29.4
		c36.9-1.5,72.5,1,108.6-1.5c0-10.6,0-19.6,0-29.2c-4,0-7.1,0-10.1,0c-1.5,6.1-2.9,11.7-4.2,16.7C265.7,49.7,263.9,48.9,258.4,28.9z
		 M328.6,103.6c-8.9-3.6-14.3-3.1-14.5,5.7c-0.4,16.8-0.2,33.7-0.2,50.5c0,4.9,1.5,8.5,7.5,8.1c5.7-0.3,7.3-3.6,7.2-8.7
		C328.6,140.8,328.6,122.4,328.6,103.6z M191.2,167.7c0-22.5,0-43.8,0-66.1c-4.6,0.3-8.1,0.6-11.9,0.9c0,21.9,0,42.7,0,64.5
		C183.5,167.2,187,167.4,191.2,167.7z"/>
	<path fill="#DD9933" d="M252.3,165.5c-7,0-14.1,0-21.1,0c-7.1,0-11.8-3.3-11.7-10.5c0.1-15.1-0.3-30.4,1.5-45.4c2-16,15.9-26.6,32-26.8
		c16-0.2,30.9,9.9,32.9,25.7c2.1,16,1.1,32.4,1,48.6c0,6.1-4.8,8-10.2,8.1c-8.1,0.2-16.3,0-24.4,0
		C252.3,165.4,252.3,165.5,252.3,165.5z M271.1,148.9c0-11.7,0.3-21.4-0.1-31.1c-0.4-10.9-7-18.3-16.2-19.1
		c-9-0.8-17.8,5.7-19.2,16.2c-1.5,11.1-2.3,22.4,1.1,33.9C247.9,148.9,258.5,148.9,271.1,148.9z"/>
</g>
</svg>
