<svg xmlns="http://www.w3.org/2000/svg" viewBox="0 0 1689.65 1081.76"><defs><style>.cls-1{fill:none;}.cls-1,.cls-2,.cls-3,.cls-4,.cls-5,.cls-6{stroke:#fff;stroke-miterlimit:10;}.cls-1,.cls-2,.cls-3,.cls-4{stroke-width:5px;}.cls-2{fill:#beac7d;}.cls-3{fill:#9ac47e;}.cls-4{fill:#be6158;}.cls-5{fill:#bdc9c7;stroke-width:6px;}.cls-6{fill:#fff;}</style></defs><title>genplan</title><g id="Слой_2" data-name="Слой 2"><path class="cls-1" d="M171.23,354.81,317.62,199.23l65.79,4.54,654.21,45.17L1294.38,76.51l158.3-58.72,259.15-5.11-89.36,106,11.57,357Q1615.92,591.32,1597.79,707l-174.68,66-110.47-1.11c-1.73,2.65-14.83,22.31-30.77,26.56a80.94,80.94,0,0,1-17.36,2.38c-1.73,0-4.62,0-10.38-.17-4.21-.09-7.68-.19-10-.25L810.55,794l-2.34,220.72c0,.4,0,1,0,1.79,0,1.41,0,2.46.05,2.85.07,2,.1,4.72.08,5.66a19.61,19.61,0,0,1-2.41,7.7c-6.93,13.32-40.78,12.85-40.78,12.85s-103.94-1.41-171.58,7.58c-4.12.54-11,1.77-16.53,7-7,6.72-6.36,14.87-9,19.87-4.2,8-20.14,14.17-74,4.13a41.45,41.45,0,0,0-9.45-17.75,42,42,0,0,0-18.38-11.23c-12.11-3.93-44-23.39-119-78.64L202.89,920.34l-145.53-97L30.3,741.87Q100.77,548.34,171.23,354.81Z" transform="translate(-27.65 -10.07)"/><path class="cls-1" d="M113.53,47.4" transform="translate(-27.65 -10.07)"/></g><g id="Слой_4" data-name="Слой 4"><polygon class="cls-2" points="349.88 351.2 142.59 347.47 289.97 189.16 355.75 193.7 349.88 351.2"/><polygon class="cls-2" points="555.5 207.49 355.75 193.7 349.88 351.2 555.5 356.65 555.5 207.49"/><polygon class="cls-2" points="753.63 360.39 555.5 356.65 555.5 207.49 756.97 221.4 753.63 360.39"/><polygon class="cls-2" points="724.35 430.18 553.8 427.8 555.5 356.65 724.35 359.84 724.35 430.18"/><polygon class="cls-2" points="376.09 423.37 376.09 351.9 553.8 356.65 553.8 427.8 376.09 423.37"/><polygon class="cls-2" points="320.52 423.37 115.92 420.72 142.59 347.47 320.52 350.68 320.52 423.37"/><polygon class="cls-2" points="320.52 496.14 90.14 491.51 115.92 420.72 320.52 423.37 320.52 496.14"/><polygon class="cls-2" points="320.52 565.84 64.18 562.81 90.14 491.51 320.52 496.14 320.52 565.84"/><polygon class="cls-2" points="321.54 639.37 38.57 633.15 64.18 562.81 320.52 565.84 321.54 639.37"/><polygon class="cls-2" points="376.77 639.37 376.77 711.72 553.46 714.44 553.46 643.29 376.77 639.37"/><polygon class="cls-2" points="376.77 784.23 376.77 711.72 553.46 714.44 553.46 787.29 376.77 784.23"/><polygon class="cls-2" points="376.77 855.37 376.77 784.23 553.46 787.29 551.75 858.44 376.77 855.37"/><polygon class="cls-2" points="376.77 926.52 376.77 855.37 551.75 858.44 551.75 926.52 376.77 926.52"/><polygon class="cls-2" points="724.01 862.52 551.75 858.44 551.75 926.52 724.01 928.57 724.01 862.52"/><polygon class="cls-2" points="724.01 790.35 724.01 862.52 551.75 858.44 553.46 787.29 724.01 790.35"/><polygon class="cls-2" points="553.46 714.44 724.01 716.14 724.01 790.35 553.46 787.29 553.46 714.44"/><polygon class="cls-2" points="724.01 644.65 553.46 643.29 553.46 714.44 724.01 716.14 724.01 644.65"/><polygon class="cls-2" points="321.63 855.37 87.77 851.95 175.24 910.27 319.5 966.44 321.63 855.37"/><polygon class="cls-2" points="783.16 505.33 783.16 578.86 960.09 578.86 970.31 508.91 783.16 505.33"/><polygon class="cls-2" points="1007.92 240.91 1266.73 66.44 1304.18 52.55 1283.33 243.29 1007.92 240.91"/><polygon class="cls-2" points="1358.05 32.56 1349.71 137.42 1595.82 139.45 1594.82 108.57 1684.18 2.61 1425.03 7.71 1358.05 32.56"/><polygon class="cls-3" points="1336.78 243.29 1349.71 137.42 1595.82 139.45 1599.27 245.99 1336.78 243.29"/><polygon class="cls-3" points="553.46 500.99 724.01 503.03 724.35 430.18 553.8 427.8 553.46 500.99"/><polygon class="cls-3" points="553.8 571.46 553.46 500.99 724.01 503.03 724.01 571.46 553.8 571.46"/><polygon class="cls-3" points="376.77 496.14 376.09 423.37 553.8 427.8 553.46 500.99 376.77 496.14"/><polygon class="cls-3" points="376.77 567.88 376.77 496.14 553.46 500.99 553.8 571.46 376.77 567.88"/><polygon class="cls-3" points="376.77 639.37 553.46 643.29 553.8 571.46 376.77 567.88 376.77 639.37"/><polygon class="cls-3" points="724.01 644.65 553.46 643.29 553.8 571.46 724.01 571.46 724.01 644.65"/><polygon class="cls-3" points="12.35 705.15 320.52 711.72 321.54 639.37 38.57 633.15 12.35 705.15"/><polygon class="cls-3" points="320.52 781.84 17.77 777.31 2.65 731.8 12.35 705.15 320.52 711.72 320.52 781.84"/><polygon class="cls-3" points="87.77 851.95 29.71 813.25 17.77 777.31 320.52 781.84 320.52 851.95 87.77 851.95"/><path class="cls-3" d="M404.43,936.6v35.57a205.21,205.21,0,0,0,54.63,32.34c51.63,20.5,98.43,14.44,120.34,10V936.6Z" transform="translate(-27.65 -10.07)"/><polygon class="cls-3" points="724.01 999.03 551.75 1004.48 551.75 926.52 724.01 928.57 724.01 999.03"/><polygon class="cls-3" points="1007.92 240.91 756.97 221.4 753.63 360.39 989.88 365.16 1007.92 240.91"/><polygon class="cls-3" points="1267.5 369.76 989.88 365.16 1007.92 240.91 1283.33 243.29 1267.5 369.76"/><polygon class="cls-3" points="780.86 430.18 780.86 360.94 989.88 365.16 981.54 432.57 780.86 430.18"/><polygon class="cls-3" points="783.16 505.33 780.86 430.18 981.54 432.57 970.31 508.91 783.16 505.33"/><polygon class="cls-3" points="785.46 747.63 936.6 750.18 951.92 651.63 785.46 651.63 785.46 747.63"/><polygon class="cls-3" points="783.16 578.86 785.46 651.63 951.92 651.63 960.09 578.86 783.16 578.86"/><polygon class="cls-3" points="1222.05 757.33 936.6 750.18 951.92 651.63 1235.84 654.18 1222.05 757.33"/><polygon class="cls-3" points="1246.05 556.14 1235.84 654.18 951.92 651.63 963.41 556.14 1246.05 556.14"/><polygon class="cls-3" points="1255.75 461.16 1246.05 556.14 963.41 556.14 977.33 461.16 1255.75 461.16"/><polygon class="cls-3" points="1267.5 369.76 1255.75 461.16 977.33 461.16 989.88 365.16 1267.5 369.76"/><polygon class="cls-4" points="780.63 998.37 825.28 998.37 925.37 787.29 782.9 783.88 780.63 996.31 780.63 998.37"/></g><g id="Слой_5" data-name="Слой 5"><polygon class="cls-3" points="1323.16 369.76 1336.78 243.29 1599.27 245.99 1603.29 369.76 1323.16 369.76"/><polygon class="cls-3" points="1312.43 466.27 1323.16 369.76 1603.29 369.76 1606.39 465.59 1312.43 466.27"/><polygon class="cls-3" points="1304.18 556.14 1312.43 466.27 1606.39 465.59 1591.88 558.2 1304.18 556.14"/><polygon class="cls-3" points="1293.03 654.18 1304.18 556.14 1591.88 558.2 1576.83 654.18 1293.03 654.18"/><polygon class="cls-3" points="1284.99 761.84 1293.03 654.18 1576.83 654.18 1570.14 696.91 1398.38 761.84 1284.99 761.84"/></g><g id="Слой_6" data-name="Слой 6"><path class="cls-5" d="M348.17,360.75,403.74,362l.69,610.2s43.06,44.75,135.23,46.76l40.43-4.38,171.57-5.44.34-639.2L808.51,371q2.21,184.91,4.4,369.82L1252.2,746l79.63-683.39,53.87-20-8.34,104.85-12.93,105.87-13.62,126.47-10.72,96.51-8.26,89.87-11.15,98-8,107.65s-19.62,35.32-58.51,28.77L810.55,794l-2.33,225.36s9.36,25.82-45.28,26.19-155.57,6-155.57,6S573.11,1047.74,568,1080H491.91s-5.46-22-32.26-27.55l-112.5-75.94Z" transform="translate(-27.65 -10.07)"/><text x="-27.65" y="-10.07"/></g><g id="Слой_7" data-name="Слой 7"><path class="cls-6" d="M295.66,922.81h-4.78V893.93l-4.86,3V892l4.86-3.23h4.78Z" transform="translate(-27.65 -10.07)"/><path class="cls-6" d="M291.2,843a8.62,8.62,0,0,1-3.5-3,11,11,0,0,1-1.68-4.77h4.88a5.18,5.18,0,0,0,.91,2.39,4.26,4.26,0,0,0,1.82,1.39,6.73,6.73,0,0,0,2.61.46,5,5,0,0,0,3.68-1.27,4.69,4.69,0,0,0,1.32-3.56v-1a5.74,5.74,0,0,0-1.25-3.95,4.45,4.45,0,0,0-3.51-1.4h-2.42v-4.54h2.42a4,4,0,0,0,3.09-1.2,4.75,4.75,0,0,0,1.1-3.37V818a4.05,4.05,0,0,0-1.16-3.11,4.56,4.56,0,0,0-3.29-1.11,5.09,5.09,0,0,0-2.18.46,4.21,4.21,0,0,0-1.63,1.41,6.39,6.39,0,0,0-1,2.38h-4.85a12.26,12.26,0,0,1,1.77-4.78,8.6,8.6,0,0,1,3.29-3,9.77,9.77,0,0,1,4.57-1,9.43,9.43,0,0,1,6.82,2.32,8.65,8.65,0,0,1,2.41,6.54v.56a7.39,7.39,0,0,1-1.38,4.46,7.86,7.86,0,0,1-3.91,2.76,6.94,6.94,0,0,1,4.32,2.74,9.14,9.14,0,0,1,1.54,5.44v.56a10.57,10.57,0,0,1-1.15,5.09,7.57,7.57,0,0,1-3.34,3.21,13,13,0,0,1-10.33.06Z" transform="translate(-27.65 -10.07)"/><path class="cls-6" d="M438.84,834.29l11.44-24.68h4.92L444,834h16.71v4.43H438.84Zm14.69-10.67h4.67v20.06h-4.67Z" transform="translate(-27.65 -10.07)"/><path class="cls-6" d="M292.36,770.05a8.25,8.25,0,0,1-3.25-2.93,11.55,11.55,0,0,1-1.68-4.62v0h4.78v0a4.41,4.41,0,0,0,1.5,2.92,4.85,4.85,0,0,0,3.24,1.05,4.34,4.34,0,0,0,3.55-1.54,6.68,6.68,0,0,0,1.25-4.32v-2.86a6.64,6.64,0,0,0-1.25-4.3,4.31,4.31,0,0,0-3.55-1.54,4.57,4.57,0,0,0-2.39.7,6.74,6.74,0,0,0-2,2h-4.36v-18h17.37v4.55H293v7.66a6.85,6.85,0,0,1,2-1.12,6.51,6.51,0,0,1,2.25-.4,9.79,9.79,0,0,1,5.05,1.22,7.75,7.75,0,0,1,3.19,3.56,13.24,13.24,0,0,1,1.09,5.65v2.86a12.92,12.92,0,0,1-1.12,5.64,8,8,0,0,1-3.28,3.58,10.31,10.31,0,0,1-5.18,1.23A10.13,10.13,0,0,1,292.36,770.05Z" transform="translate(-27.65 -10.07)"/><path class="cls-6" d="M305,674.51l-8.81,29.82h-5.09L300,674.79h-8.68v4.9h-4.78v-9.44H305Z" transform="translate(-27.65 -10.07)"/><path class="cls-6" d="M299.5,614.76l0,.85a3.52,3.52,0,0,1-1.77,1.58,7.07,7.07,0,0,1-2.8.5,7.48,7.48,0,0,1-4.29-1.24,8.06,8.06,0,0,1-2.87-3.5,12.66,12.66,0,0,1-1-5.24v0a13.09,13.09,0,0,1,1.11-5.65,7.84,7.84,0,0,1,3.26-3.56,11.35,11.35,0,0,1,10.28,0,8,8,0,0,1,3.24,3.61,13.31,13.31,0,0,1,1.11,5.69v0a17.81,17.81,0,0,1-.46,3.9,24.63,24.63,0,0,1-1.34,4.11c-.09.21-.19.41-.28.62s-.2.42-.31.62l-7.26,14.61h-5.16Zm.22-3a6.64,6.64,0,0,0,1.23-4.29v0a6.32,6.32,0,0,0-1.23-4.17,4.85,4.85,0,0,0-7,0,6.36,6.36,0,0,0-1.23,4.19v0a6.58,6.58,0,0,0,1.23,4.27,4.25,4.25,0,0,0,3.5,1.51A4.2,4.2,0,0,0,299.72,611.81Z" transform="translate(-27.65 -10.07)"/><path class="cls-6" d="M291.06,555.86h-4.78V527l-4.85,3v-5l4.85-3.23h4.78Z" transform="translate(-27.65 -10.07)"/><path class="cls-6" d="M307,555.86h-4.78V527l-4.85,3v-5l4.85-3.23H307Z" transform="translate(-27.65 -10.07)"/><path class="cls-6" d="M288.66,486.92h-4.78V458.05L279,461v-4.94l4.86-3.24h4.78Z" transform="translate(-27.65 -10.07)"/><path class="cls-6" d="M300.16,486.23a8.62,8.62,0,0,1-3.5-3,11,11,0,0,1-1.68-4.77h4.88a5.25,5.25,0,0,0,.91,2.39,4.26,4.26,0,0,0,1.82,1.39,6.73,6.73,0,0,0,2.61.46,5,5,0,0,0,3.68-1.27,4.69,4.69,0,0,0,1.32-3.56v-1a5.74,5.74,0,0,0-1.25-3.95,4.44,4.44,0,0,0-3.51-1.39H303v-4.55h2.42a4,4,0,0,0,3.09-1.2,4.75,4.75,0,0,0,1.1-3.37V461.3a4.05,4.05,0,0,0-1.16-3.11,4.56,4.56,0,0,0-3.29-1.11,5.09,5.09,0,0,0-2.18.46,4.29,4.29,0,0,0-1.63,1.41,6.39,6.39,0,0,0-1,2.38h-4.85a12.26,12.26,0,0,1,1.77-4.78,8.6,8.6,0,0,1,3.29-3,9.77,9.77,0,0,1,4.57-1,9.43,9.43,0,0,1,6.82,2.32,8.65,8.65,0,0,1,2.41,6.54v.56a7.39,7.39,0,0,1-1.38,4.46,7.82,7.82,0,0,1-3.91,2.76,6.94,6.94,0,0,1,4.32,2.74,9.07,9.07,0,0,1,1.54,5.44v.56a10.57,10.57,0,0,1-1.15,5.09,7.57,7.57,0,0,1-3.34,3.21,13,13,0,0,1-10.33.06Z" transform="translate(-27.65 -10.07)"/><path class="cls-6" d="M288.66,415.69h-4.78V386.81l-4.86,3v-5l4.86-3.23h4.78Z" transform="translate(-27.65 -10.07)"/><path class="cls-6" d="M301.32,415a8.25,8.25,0,0,1-3.25-2.93,11.55,11.55,0,0,1-1.68-4.62v0h4.78v0a4.41,4.41,0,0,0,1.5,2.92,4.85,4.85,0,0,0,3.24,1,4.34,4.34,0,0,0,3.55-1.53,6.7,6.7,0,0,0,1.25-4.32v-2.86a6.64,6.64,0,0,0-1.25-4.3,4.31,4.31,0,0,0-3.55-1.54,4.48,4.48,0,0,0-2.39.7,6.74,6.74,0,0,0-2,2h-4.36V381.61h17.37v4.55H301.92v7.66a7.12,7.12,0,0,1,2-1.13,6.74,6.74,0,0,1,2.25-.39,9.85,9.85,0,0,1,5.06,1.22,7.79,7.79,0,0,1,3.18,3.56,13.24,13.24,0,0,1,1.09,5.65v2.86a12.92,12.92,0,0,1-1.12,5.64,8,8,0,0,1-3.28,3.58,10.31,10.31,0,0,1-5.18,1.23A10.13,10.13,0,0,1,301.32,415Z" transform="translate(-27.65 -10.07)"/><path class="cls-6" d="M291.06,342.92h-4.78V314.05l-4.85,3v-4.94l4.85-3.24h4.78Z" transform="translate(-27.65 -10.07)"/><path class="cls-6" d="M316.4,313.11l-8.82,29.81H302.5l8.81-29.53h-8.67v4.9h-4.78v-9.45H316.4Z" transform="translate(-27.65 -10.07)"/><path class="cls-6" d="M447.53,342.92h-4.78V314.05l-4.85,3v-4.94l4.85-3.24h4.78Z" transform="translate(-27.65 -10.07)"/><path class="cls-6" d="M459.82,342.1a8.59,8.59,0,0,1-3.63-3.32,9.56,9.56,0,0,1-1.27-5v-.56a9.58,9.58,0,0,1,1.27-4.8,8.58,8.58,0,0,1,3.41-3.4,7.53,7.53,0,0,1-2.89-2.85,7.61,7.61,0,0,1-1.09-3.92v-.83a9,9,0,0,1,1.2-4.69,8.08,8.08,0,0,1,3.37-3.15,12.11,12.11,0,0,1,10.13,0,8.14,8.14,0,0,1,3.37,3.15,9,9,0,0,1,1.2,4.69v.83a7.61,7.61,0,0,1-1.12,4,7.41,7.41,0,0,1-2.94,2.81,8.85,8.85,0,0,1,3.46,3.41,9.35,9.35,0,0,1,1.3,4.79v.56a9.56,9.56,0,0,1-1.28,5,8.57,8.57,0,0,1-3.62,3.32,13.21,13.21,0,0,1-10.87,0Zm8.36-4.08a4.65,4.65,0,0,0,2-1.84,5.33,5.33,0,0,0,.69-2.73v-.33a5.37,5.37,0,0,0-.69-2.75,4.71,4.71,0,0,0-2-1.84,6.83,6.83,0,0,0-5.86,0,4.77,4.77,0,0,0-1.95,1.85,5.45,5.45,0,0,0-.7,2.77v.35a5.27,5.27,0,0,0,.7,2.72,4.68,4.68,0,0,0,1.95,1.81,6.39,6.39,0,0,0,2.93.65A6.24,6.24,0,0,0,468.18,338Zm-.4-15.36a4.26,4.26,0,0,0,1.72-1.77,5.66,5.66,0,0,0,.6-2.65v-.33a5.23,5.23,0,0,0-.6-2.53,4.26,4.26,0,0,0-1.72-1.7,5.17,5.17,0,0,0-2.53-.59,5.22,5.22,0,0,0-2.53.59,4.3,4.3,0,0,0-1.71,1.7,5.18,5.18,0,0,0-.61,2.56v.35a5.41,5.41,0,0,0,.61,2.61,4.33,4.33,0,0,0,1.71,1.76,5.13,5.13,0,0,0,2.53.62A5.07,5.07,0,0,0,467.78,322.66Z" transform="translate(-27.65 -10.07)"/><path class="cls-6" d="M447.53,415.69h-4.78V386.81l-4.85,3v-5l4.85-3.23h4.78Z" transform="translate(-27.65 -10.07)"/><path class="cls-6" d="M458.92,414.83a7.78,7.78,0,0,1-3.24-3.51,12.78,12.78,0,0,1-1.11-5.57v0a18.88,18.88,0,0,1,.44-4,23.46,23.46,0,0,1,1.29-4.1c.09-.23.2-.46.3-.69l.33-.67,7.41-14.67h5.16l-8.7,17,0-.84a4,4,0,0,1,1.71-1.71,5.41,5.41,0,0,1,2.63-.61,8.45,8.45,0,0,1,4.55,1.19,7.55,7.55,0,0,1,2.88,3.48,13.83,13.83,0,0,1,1,5.5v0a13.06,13.06,0,0,1-1.11,5.63,7.84,7.84,0,0,1-3.26,3.56,11.48,11.48,0,0,1-10.28,0Zm8.64-4.79a5.9,5.9,0,0,0,1.23-4v0a6.75,6.75,0,0,0-1.29-4.42,4.5,4.5,0,0,0-3.68-1.56,3.87,3.87,0,0,0-3.3,1.57,7.32,7.32,0,0,0-1.17,4.43v0a5.86,5.86,0,0,0,1.23,4,5,5,0,0,0,7,0Z" transform="translate(-27.65 -10.07)"/><path class="cls-6" d="M447.53,487.92h-4.78V459.05l-4.85,3v-4.94l4.85-3.24h4.78Z" transform="translate(-27.65 -10.07)"/><path class="cls-6" d="M454.8,478.55l11.44-24.68h4.92L460,478.27h16.71v4.42H454.8Zm14.7-10.67h4.66v20.06H469.5Z" transform="translate(-27.65 -10.07)"/><path class="cls-6" d="M447.53,555.86h-4.78V527l-4.85,3v-5l4.85-3.23h4.78Z" transform="translate(-27.65 -10.07)"/><path class="cls-6" d="M454.75,551.71l11.89-15.84a12,12,0,0,0,1.6-2.83,7.62,7.62,0,0,0,.58-2.73v0a4.12,4.12,0,0,0-1.2-3.16,4.78,4.78,0,0,0-3.4-1.13,4.64,4.64,0,0,0-3.37,1.24,5.55,5.55,0,0,0-1.57,3.48v0h-4.95v0a12.8,12.8,0,0,1,1.72-5,8.72,8.72,0,0,1,3.37-3.16,10,10,0,0,1,4.75-1.09,12,12,0,0,1,5.21,1,7.33,7.33,0,0,1,3.28,3,9.6,9.6,0,0,1,1.12,4.8v0a10.63,10.63,0,0,1-.75,3.78A16,16,0,0,1,471,537.9l-9.87,13.41H474v4.55H454.75Z" transform="translate(-27.65 -10.07)"/><path class="cls-6" d="M447.53,631.69h-4.78V602.81l-4.85,3v-4.95l4.85-3.23h4.78Z" transform="translate(-27.65 -10.07)"/><path class="cls-6" d="M457.74,629.48a9.79,9.79,0,0,1-2.47-7.12V606.87a9.81,9.81,0,0,1,2.48-7.14c1.66-1.69,4.07-2.54,7.25-2.54s5.6.84,7.25,2.53,2.47,4.07,2.47,7.15v15.49a9.83,9.83,0,0,1-2.48,7.14Q469.75,632,465,632T457.74,629.48Zm11-3.31a5.43,5.43,0,0,0,1.21-3.81V606.87a5.52,5.52,0,0,0-1.19-3.81,6,6,0,0,0-7.5,0,5.48,5.48,0,0,0-1.2,3.81v15.49a5.43,5.43,0,0,0,1.21,3.81,5.94,5.94,0,0,0,7.47,0Z" transform="translate(-27.65 -10.07)"/><path class="cls-6" d="M443.85,703.5a8.54,8.54,0,0,1-3.62-3.31,9.56,9.56,0,0,1-1.27-5v-.56a9.59,9.59,0,0,1,1.27-4.81,8.58,8.58,0,0,1,3.41-3.4,7.39,7.39,0,0,1-2.89-2.85,7.61,7.61,0,0,1-1.09-3.92v-.82a9.15,9.15,0,0,1,1.19-4.7,8.14,8.14,0,0,1,3.38-3.14,12.09,12.09,0,0,1,10.12,0,8.08,8.08,0,0,1,3.38,3.14,9,9,0,0,1,1.19,4.7v.82a7.55,7.55,0,0,1-1.11,4,7.41,7.41,0,0,1-2.94,2.81,8.85,8.85,0,0,1,3.46,3.41,9.45,9.45,0,0,1,1.3,4.8v.56a9.56,9.56,0,0,1-1.28,5,8.54,8.54,0,0,1-3.62,3.31,13.13,13.13,0,0,1-10.88,0Zm8.37-4.07a4.71,4.71,0,0,0,2-1.84,5.33,5.33,0,0,0,.69-2.73v-.33a5.39,5.39,0,0,0-.69-2.76,4.78,4.78,0,0,0-2-1.84,6.93,6.93,0,0,0-5.86,0,4.73,4.73,0,0,0-1.95,1.86,5.29,5.29,0,0,0-.7,2.76v.35a5.17,5.17,0,0,0,.7,2.72,4.7,4.7,0,0,0,1.95,1.82,7,7,0,0,0,5.86,0Zm-.4-15.37a4.17,4.17,0,0,0,1.71-1.77,5.47,5.47,0,0,0,.61-2.64v-.33a5.07,5.07,0,0,0-.61-2.53,4.12,4.12,0,0,0-1.71-1.7,5.17,5.17,0,0,0-2.53-.6,5.23,5.23,0,0,0-2.53.6,4.24,4.24,0,0,0-1.71,1.7,5.12,5.12,0,0,0-.61,2.55v.35a5.42,5.42,0,0,0,.61,2.62,4.37,4.37,0,0,0,1.71,1.75,5,5,0,0,0,2.53.62A5,5,0,0,0,451.82,684.06Z" transform="translate(-27.65 -10.07)"/><path class="cls-6" d="M443,769.85a7.78,7.78,0,0,1-3.24-3.51,12.77,12.77,0,0,1-1.12-5.57v0a18.92,18.92,0,0,1,.45-4,23.46,23.46,0,0,1,1.29-4.1q.14-.35.3-.69l.33-.67,7.41-14.67h5.15l-8.69,17,0-.84a4,4,0,0,1,1.71-1.71,5.41,5.41,0,0,1,2.63-.61,8.45,8.45,0,0,1,4.55,1.19,7.55,7.55,0,0,1,2.88,3.48,14,14,0,0,1,1,5.5v0a13.06,13.06,0,0,1-1.11,5.63,7.84,7.84,0,0,1-3.26,3.56,11.48,11.48,0,0,1-10.28,0Zm8.64-4.79a5.9,5.9,0,0,0,1.23-4v0a6.75,6.75,0,0,0-1.29-4.42,4.5,4.5,0,0,0-3.68-1.56,3.89,3.89,0,0,0-3.3,1.57,7.32,7.32,0,0,0-1.17,4.43v0a5.85,5.85,0,0,0,1.23,4,5,5,0,0,0,7,0Z" transform="translate(-27.65 -10.07)"/><path class="cls-6" d="M438.79,912.35l11.88-15.85a11.43,11.43,0,0,0,1.61-2.82,7.59,7.59,0,0,0,.57-2.73v-.05a4.11,4.11,0,0,0-1.19-3.16,4.78,4.78,0,0,0-3.4-1.13,4.66,4.66,0,0,0-3.37,1.23,5.61,5.61,0,0,0-1.58,3.48v0h-4.94v0a12.81,12.81,0,0,1,1.72-5,8.72,8.72,0,0,1,3.37-3.16,10,10,0,0,1,4.75-1.09,11.84,11.84,0,0,1,5.21,1,7.36,7.36,0,0,1,3.28,3,9.64,9.64,0,0,1,1.12,4.81v0a10.67,10.67,0,0,1-.75,3.78,16.24,16.24,0,0,1-2.08,3.79L445.12,912H458v4.55H438.79Z" transform="translate(-27.65 -10.07)"/><path class="cls-6" d="M438.79,980.26l11.88-15.84a11.67,11.67,0,0,0,1.61-2.83,7.51,7.51,0,0,0,.57-2.73v0a4.13,4.13,0,0,0-1.19-3.17,4.78,4.78,0,0,0-3.4-1.12,4.66,4.66,0,0,0-3.37,1.23,5.61,5.61,0,0,0-1.58,3.48v0h-4.94v0a12.91,12.91,0,0,1,1.72-5,8.8,8.8,0,0,1,3.37-3.16,10,10,0,0,1,4.75-1.09,12,12,0,0,1,5.21,1,7.39,7.39,0,0,1,3.28,3,9.63,9.63,0,0,1,1.12,4.8v0a10.57,10.57,0,0,1-.75,3.77,16.3,16.3,0,0,1-2.08,3.8l-9.87,13.4H458v4.55H438.79Z" transform="translate(-27.65 -10.07)"/><path class="cls-6" d="M463.52,979.39h5v5h-5Z" transform="translate(-27.65 -10.07)"/><path class="cls-6" d="M483.21,984.41h-4.79V955.54l-4.85,3v-4.94l4.85-3.24h4.79Z" transform="translate(-27.65 -10.07)"/><path class="cls-6" d="M690.28,990.75h-4.79V961.88l-4.85,3v-4.94l4.85-3.24h4.79Z" transform="translate(-27.65 -10.07)"/><path class="cls-6" d="M710.08,973.83l0,.84a3.47,3.47,0,0,1-1.77,1.58,7.07,7.07,0,0,1-2.8.51,7.56,7.56,0,0,1-4.29-1.24,8.09,8.09,0,0,1-2.87-3.51,12.63,12.63,0,0,1-1-5.24v0a13.12,13.12,0,0,1,1.11-5.65,7.84,7.84,0,0,1,3.26-3.56,10.26,10.26,0,0,1,5.14-1.22,10.06,10.06,0,0,1,5.14,1.24,8,8,0,0,1,3.24,3.61,13.35,13.35,0,0,1,1.11,5.7v0a17.81,17.81,0,0,1-.46,3.9,24.44,24.44,0,0,1-1.34,4.12c-.09.2-.19.41-.28.62s-.2.42-.31.62l-7.26,14.6H701.5Zm.22-3a6.68,6.68,0,0,0,1.23-4.29v0a6.36,6.36,0,0,0-1.23-4.17,4.85,4.85,0,0,0-7,0,6.39,6.39,0,0,0-1.23,4.2v0a6.63,6.63,0,0,0,1.23,4.28,4.28,4.28,0,0,0,3.5,1.51A4.23,4.23,0,0,0,710.3,970.88Z" transform="translate(-27.65 -10.07)"/><path class="cls-6" d="M681.53,918.66l11.89-15.84A12,12,0,0,0,695,900a7.53,7.53,0,0,0,.58-2.73v0a4.13,4.13,0,0,0-1.2-3.16,4.78,4.78,0,0,0-3.4-1.12,4.68,4.68,0,0,0-3.37,1.23,5.55,5.55,0,0,0-1.57,3.48v0h-4.95v0a12.86,12.86,0,0,1,1.72-5,8.8,8.8,0,0,1,3.37-3.16,10,10,0,0,1,4.76-1.09,11.93,11.93,0,0,1,5.2,1,7.33,7.33,0,0,1,3.28,3,9.63,9.63,0,0,1,1.12,4.8v0a10.57,10.57,0,0,1-.75,3.77,16.3,16.3,0,0,1-2.08,3.8l-9.87,13.4h12.89v4.55H681.53Z" transform="translate(-27.65 -10.07)"/><path class="cls-6" d="M709.32,920.61a9.83,9.83,0,0,1-2.47-7.13V898a9.78,9.78,0,0,1,2.48-7.14q2.49-2.54,7.24-2.54t7.26,2.53A9.84,9.84,0,0,1,726.3,898v15.49a9.79,9.79,0,0,1-2.49,7.14c-1.65,1.69-4.07,2.54-7.24,2.54S711,922.31,709.32,920.61Zm11-3.32a5.43,5.43,0,0,0,1.21-3.81V898a5.48,5.48,0,0,0-1.2-3.81,6,6,0,0,0-7.5,0,5.52,5.52,0,0,0-1.19,3.81v15.49a5.48,5.48,0,0,0,1.2,3.81,6,6,0,0,0,7.48,0Z" transform="translate(-27.65 -10.07)"/><path class="cls-6" d="M681.53,847.58l11.89-15.84a12,12,0,0,0,1.6-2.83,7.53,7.53,0,0,0,.58-2.73v0a4.14,4.14,0,0,0-1.2-3.17,4.78,4.78,0,0,0-3.4-1.12,4.68,4.68,0,0,0-3.37,1.23,5.55,5.55,0,0,0-1.57,3.48v0h-4.95v0a12.86,12.86,0,0,1,1.72-5,8.8,8.8,0,0,1,3.37-3.16A10,10,0,0,1,691,817.3a11.93,11.93,0,0,1,5.2,1,7.33,7.33,0,0,1,3.28,3,9.63,9.63,0,0,1,1.12,4.8v0a10.57,10.57,0,0,1-.75,3.77,16.3,16.3,0,0,1-2.08,3.8l-9.87,13.4h12.89v4.55H681.53Z" transform="translate(-27.65 -10.07)"/><path class="cls-6" d="M710.62,851a8.64,8.64,0,0,1-3.5-3,10.76,10.76,0,0,1-1.68-4.76h4.87a5.3,5.3,0,0,0,.92,2.39A4.23,4.23,0,0,0,713,847a7,7,0,0,0,2.62.46,5.06,5.06,0,0,0,3.68-1.27,4.73,4.73,0,0,0,1.31-3.56v-1a5.72,5.72,0,0,0-1.24-4,4.47,4.47,0,0,0-3.52-1.4h-2.41v-4.54h2.41a4,4,0,0,0,3.1-1.2,4.8,4.8,0,0,0,1.1-3.37v-1.06a4.09,4.09,0,0,0-1.16-3.11,4.59,4.59,0,0,0-3.3-1.11,5,5,0,0,0-2.17.46,4.07,4.07,0,0,0-1.63,1.41,6.39,6.39,0,0,0-1,2.38H706a12.37,12.37,0,0,1,1.77-4.79,8.79,8.79,0,0,1,3.29-3,9.8,9.8,0,0,1,4.57-1,9.45,9.45,0,0,1,6.83,2.32,8.69,8.69,0,0,1,2.41,6.54v.56a7.36,7.36,0,0,1-1.38,4.45,7.84,7.84,0,0,1-3.92,2.77,7,7,0,0,1,4.33,2.74,9.11,9.11,0,0,1,1.53,5.44v.56a10.46,10.46,0,0,1-1.15,5.09,7.57,7.57,0,0,1-3.34,3.21,13,13,0,0,1-10.32.06Z" transform="translate(-27.65 -10.07)"/><path class="cls-6" d="M681.53,775.07l11.89-15.84a12,12,0,0,0,1.6-2.83,7.53,7.53,0,0,0,.58-2.73v0a4.14,4.14,0,0,0-1.2-3.17,4.78,4.78,0,0,0-3.4-1.12,4.68,4.68,0,0,0-3.37,1.23,5.55,5.55,0,0,0-1.57,3.48v0h-4.95v0a12.86,12.86,0,0,1,1.72-5,8.8,8.8,0,0,1,3.37-3.16,10,10,0,0,1,4.75-1.09,12,12,0,0,1,5.21,1,7.33,7.33,0,0,1,3.28,3,9.63,9.63,0,0,1,1.12,4.8v0a10.57,10.57,0,0,1-.75,3.77,16.3,16.3,0,0,1-2.08,3.8l-9.87,13.4h12.89v4.55H681.53Z" transform="translate(-27.65 -10.07)"/><path class="cls-6" d="M711.78,778.56a8.28,8.28,0,0,1-3.26-2.93,11.71,11.71,0,0,1-1.67-4.61v0h4.78v0a4.39,4.39,0,0,0,1.5,2.91,4.81,4.81,0,0,0,3.23,1.05,4.33,4.33,0,0,0,3.55-1.54,6.62,6.62,0,0,0,1.26-4.32v-2.86a6.58,6.58,0,0,0-1.26-4.3,4.3,4.3,0,0,0-3.55-1.54,4.52,4.52,0,0,0-2.39.71,6.59,6.59,0,0,0-2,2H707.6v-18H725v4.55H712.38v7.66a6.6,6.6,0,0,1,2-1.12,6.43,6.43,0,0,1,2.25-.4,9.81,9.81,0,0,1,5,1.22,7.81,7.81,0,0,1,3.19,3.56,13.4,13.4,0,0,1,1.09,5.65v2.86a13,13,0,0,1-1.13,5.65,8,8,0,0,1-3.28,3.57,10.29,10.29,0,0,1-5.18,1.23A10.06,10.06,0,0,1,711.78,778.56Z" transform="translate(-27.65 -10.07)"/><path class="cls-6" d="M681.53,704.94l11.89-15.84a12,12,0,0,0,1.6-2.83,7.53,7.53,0,0,0,.58-2.73v0a4.14,4.14,0,0,0-1.2-3.17,4.78,4.78,0,0,0-3.4-1.12,4.68,4.68,0,0,0-3.37,1.23,5.55,5.55,0,0,0-1.57,3.48v0h-4.95v0a12.81,12.81,0,0,1,1.72-5,8.75,8.75,0,0,1,3.37-3.17,10,10,0,0,1,4.75-1.09,12,12,0,0,1,5.21,1,7.33,7.33,0,0,1,3.28,3,9.63,9.63,0,0,1,1.12,4.8v0a10.57,10.57,0,0,1-.75,3.77,16.3,16.3,0,0,1-2.08,3.8l-9.87,13.4h12.89v4.55H681.53Z" transform="translate(-27.65 -10.07)"/><path class="cls-6" d="M724.45,679.28l-8.82,29.81h-5.08l8.81-29.53h-8.67v4.9h-4.78V675h18.54Z" transform="translate(-27.65 -10.07)"/><path class="cls-6" d="M681.53,634.47l11.89-15.84a12.11,12.11,0,0,0,1.6-2.82,7.62,7.62,0,0,0,.58-2.73V613a4.12,4.12,0,0,0-1.2-3.16,4.78,4.78,0,0,0-3.4-1.13,4.68,4.68,0,0,0-3.37,1.23,5.55,5.55,0,0,0-1.57,3.48v0h-4.95v0a12.81,12.81,0,0,1,1.72-5,8.75,8.75,0,0,1,3.37-3.17,10.08,10.08,0,0,1,4.75-1.09,11.81,11.81,0,0,1,5.21,1,7.26,7.26,0,0,1,3.28,3,9.64,9.64,0,0,1,1.12,4.81v0a10.57,10.57,0,0,1-.75,3.77,16.1,16.1,0,0,1-2.08,3.8l-9.87,13.41h12.89v4.54H681.53Z" transform="translate(-27.65 -10.07)"/><path class="cls-6" d="M718.92,621.7l0,.84a3.53,3.53,0,0,1-1.77,1.59,7.22,7.22,0,0,1-2.8.5,7.53,7.53,0,0,1-4.29-1.24,8.16,8.16,0,0,1-2.87-3.51,12.58,12.58,0,0,1-1-5.23v0a13,13,0,0,1,1.12-5.65,7.82,7.82,0,0,1,3.25-3.56,10.3,10.3,0,0,1,5.15-1.22,10,10,0,0,1,5.13,1.25A8,8,0,0,1,724,609a13.35,13.35,0,0,1,1.11,5.7v0a18,18,0,0,1-.47,3.91,24.58,24.58,0,0,1-1.33,4.11c-.1.2-.19.41-.29.62s-.19.42-.3.62l-7.27,14.6h-5.15Zm.22-3a6.68,6.68,0,0,0,1.23-4.29v0a6.37,6.37,0,0,0-1.23-4.18,4.89,4.89,0,0,0-7,0,6.41,6.41,0,0,0-1.23,4.2v0a6.61,6.61,0,0,0,1.23,4.28,4.79,4.79,0,0,0,7,0Z" transform="translate(-27.65 -10.07)"/><path class="cls-6" d="M685.82,564.4a8.62,8.62,0,0,1-3.5-3,11,11,0,0,1-1.68-4.77h4.88a5.14,5.14,0,0,0,.91,2.39,4.26,4.26,0,0,0,1.82,1.39,6.73,6.73,0,0,0,2.61.46,5,5,0,0,0,3.68-1.27,4.69,4.69,0,0,0,1.31-3.56v-1a5.74,5.74,0,0,0-1.24-4,4.46,4.46,0,0,0-3.51-1.39h-2.42V545.1h2.42a4,4,0,0,0,3.09-1.2,4.8,4.8,0,0,0,1.1-3.37v-1.06a4.09,4.09,0,0,0-1.16-3.11,4.56,4.56,0,0,0-3.29-1.1,5.06,5.06,0,0,0-2.18.45,4.22,4.22,0,0,0-1.63,1.41,6.23,6.23,0,0,0-1,2.38H681.2a12.58,12.58,0,0,1,1.77-4.78,8.69,8.69,0,0,1,3.3-3,9.89,9.89,0,0,1,4.57-1,9.49,9.49,0,0,1,6.82,2.32,8.65,8.65,0,0,1,2.41,6.54v.56a7.39,7.39,0,0,1-1.38,4.46,7.84,7.84,0,0,1-3.92,2.76A7,7,0,0,1,699.1,550a9.13,9.13,0,0,1,1.53,5.44V556a10.57,10.57,0,0,1-1.14,5.09,7.57,7.57,0,0,1-3.34,3.21,13,13,0,0,1-10.33.06Z" transform="translate(-27.65 -10.07)"/><path class="cls-6" d="M715.66,565.09h-4.78V536.22l-4.86,3v-4.94l4.86-3.24h4.78Z" transform="translate(-27.65 -10.07)"/><path class="cls-6" d="M685.82,496a8.55,8.55,0,0,1-3.5-3,10.89,10.89,0,0,1-1.68-4.77h4.88a5.1,5.1,0,0,0,.91,2.39,4.22,4.22,0,0,0,1.82,1.4,6.92,6.92,0,0,0,2.61.45,5.09,5.09,0,0,0,3.68-1.26,4.7,4.7,0,0,0,1.31-3.56v-1a5.74,5.74,0,0,0-1.24-3.95,4.5,4.5,0,0,0-3.52-1.39h-2.41v-4.55h2.41a4,4,0,0,0,3.1-1.19,4.82,4.82,0,0,0,1.1-3.38v-1.05a4.11,4.11,0,0,0-1.16-3.12,4.6,4.6,0,0,0-3.29-1.1,4.92,4.92,0,0,0-2.18.46,4.11,4.11,0,0,0-1.63,1.4,6.36,6.36,0,0,0-1,2.38H681.2a12.65,12.65,0,0,1,1.77-4.78,8.59,8.59,0,0,1,3.3-3,9.74,9.74,0,0,1,4.57-1,9.44,9.44,0,0,1,6.82,2.32,8.62,8.62,0,0,1,2.41,6.54v.56a7.36,7.36,0,0,1-1.38,4.45,7.8,7.8,0,0,1-3.92,2.77,6.92,6.92,0,0,1,4.33,2.74,9.09,9.09,0,0,1,1.53,5.44v.56a10.53,10.53,0,0,1-1.14,5.08,7.64,7.64,0,0,1-3.34,3.22,11.77,11.77,0,0,1-5.29,1.1A11.46,11.46,0,0,1,685.82,496Z" transform="translate(-27.65 -10.07)"/><path class="cls-6" d="M711.2,496a8.55,8.55,0,0,1-3.5-3,11,11,0,0,1-1.68-4.77h4.88a5.1,5.1,0,0,0,.91,2.39,4.28,4.28,0,0,0,1.82,1.4,6.92,6.92,0,0,0,2.61.45,5.09,5.09,0,0,0,3.68-1.26,4.71,4.71,0,0,0,1.32-3.56v-1a5.74,5.74,0,0,0-1.25-3.95,4.48,4.48,0,0,0-3.51-1.39h-2.42v-4.55h2.42a4,4,0,0,0,3.09-1.19,4.78,4.78,0,0,0,1.1-3.38v-1.05a4.07,4.07,0,0,0-1.16-3.12,4.6,4.6,0,0,0-3.29-1.1,5,5,0,0,0-2.18.46,4.18,4.18,0,0,0-1.63,1.4,6.53,6.53,0,0,0-1,2.38h-4.85a12.32,12.32,0,0,1,1.77-4.78,8.49,8.49,0,0,1,3.29-3,9.77,9.77,0,0,1,4.57-1,9.43,9.43,0,0,1,6.82,2.32,8.62,8.62,0,0,1,2.41,6.54v.56a7.36,7.36,0,0,1-1.38,4.45,7.81,7.81,0,0,1-3.91,2.77,6.89,6.89,0,0,1,4.32,2.74,9.09,9.09,0,0,1,1.54,5.44v.56a10.53,10.53,0,0,1-1.15,5.08,7.64,7.64,0,0,1-3.34,3.22,11.71,11.71,0,0,1-5.29,1.1A11.52,11.52,0,0,1,711.2,496Z" transform="translate(-27.65 -10.07)"/><path class="cls-6" d="M685.82,421.76a8.55,8.55,0,0,1-3.5-3,10.89,10.89,0,0,1-1.68-4.77h4.88a5.14,5.14,0,0,0,.91,2.39,4.2,4.2,0,0,0,1.82,1.39,6.73,6.73,0,0,0,2.61.46,5,5,0,0,0,3.68-1.27,4.69,4.69,0,0,0,1.31-3.56v-1a5.74,5.74,0,0,0-1.24-4,4.46,4.46,0,0,0-3.52-1.39h-2.41v-4.55h2.41a4,4,0,0,0,3.1-1.19,4.84,4.84,0,0,0,1.1-3.38v-1.05a4.1,4.1,0,0,0-1.16-3.12,4.56,4.56,0,0,0-3.29-1.1,5.06,5.06,0,0,0-2.18.45,4.22,4.22,0,0,0-1.63,1.41,6.29,6.29,0,0,0-1,2.38H681.2a12.65,12.65,0,0,1,1.77-4.78,8.69,8.69,0,0,1,3.3-3,9.86,9.86,0,0,1,4.57-1,9.49,9.49,0,0,1,6.82,2.32,8.65,8.65,0,0,1,2.41,6.54v.56a7.39,7.39,0,0,1-1.38,4.46,7.78,7.78,0,0,1-3.92,2.76,6.93,6.93,0,0,1,4.33,2.75,9.08,9.08,0,0,1,1.53,5.43v.57a10.53,10.53,0,0,1-1.14,5.08,7.57,7.57,0,0,1-3.34,3.21,11.64,11.64,0,0,1-5.29,1.1A11.46,11.46,0,0,1,685.82,421.76Z" transform="translate(-27.65 -10.07)"/><path class="cls-6" d="M712.36,421.8a8.32,8.32,0,0,1-3.25-2.93,11.55,11.55,0,0,1-1.68-4.62v0h4.78v0a4.43,4.43,0,0,0,1.5,2.92,4.9,4.9,0,0,0,3.24,1,4.34,4.34,0,0,0,3.55-1.53,6.73,6.73,0,0,0,1.25-4.33v-2.86a6.65,6.65,0,0,0-1.25-4.3,4.34,4.34,0,0,0-3.55-1.53,4.48,4.48,0,0,0-2.39.7,6.63,6.63,0,0,0-2,2h-4.36v-18h17.37v4.55H713v7.67a6.88,6.88,0,0,1,2-1.13,6.51,6.51,0,0,1,2.25-.4,9.89,9.89,0,0,1,5,1.22,7.75,7.75,0,0,1,3.19,3.56,13.31,13.31,0,0,1,1.09,5.65v2.86a13,13,0,0,1-1.12,5.65,8,8,0,0,1-3.28,3.57A10.31,10.31,0,0,1,717,422.8,10.13,10.13,0,0,1,712.36,421.8Z" transform="translate(-27.65 -10.07)"/><path class="cls-6" d="M685.82,346.19a8.64,8.64,0,0,1-3.5-3,10.89,10.89,0,0,1-1.68-4.77h4.88a5.1,5.1,0,0,0,.91,2.39,4.22,4.22,0,0,0,1.82,1.4,6.92,6.92,0,0,0,2.61.46,5.09,5.09,0,0,0,3.68-1.27,4.69,4.69,0,0,0,1.31-3.56v-1a5.72,5.72,0,0,0-1.24-3.95,4.47,4.47,0,0,0-3.52-1.4h-2.41v-4.54h2.41a4,4,0,0,0,3.1-1.2,4.82,4.82,0,0,0,1.1-3.37v-1.06a4.13,4.13,0,0,0-1.16-3.12,4.6,4.6,0,0,0-3.29-1.1,4.92,4.92,0,0,0-2.18.46,4.06,4.06,0,0,0-1.63,1.41,6.24,6.24,0,0,0-1,2.37H681.2A12.71,12.71,0,0,1,683,316.5a8.75,8.75,0,0,1,3.3-3,9.74,9.74,0,0,1,4.57-1,9.44,9.44,0,0,1,6.82,2.32,8.65,8.65,0,0,1,2.41,6.54v.56a7.36,7.36,0,0,1-1.38,4.45,7.8,7.8,0,0,1-3.92,2.77,7,7,0,0,1,4.33,2.74,9.11,9.11,0,0,1,1.53,5.44v.56a10.57,10.57,0,0,1-1.14,5.09,7.68,7.68,0,0,1-3.34,3.21,11.77,11.77,0,0,1-5.29,1.1A11.6,11.6,0,0,1,685.82,346.19Z" transform="translate(-27.65 -10.07)"/><path class="cls-6" d="M725,317.07l-8.81,29.81h-5.09L720,317.35h-8.68v4.9h-4.78V312.8H725Z" transform="translate(-27.65 -10.07)"/><path class="cls-6" d="M835,827.94h4.07L851.65,862h-5.16L837,834.53,827.6,862h-5.16ZM828.23,850h17.93v4.55H828.23Z" transform="translate(-27.65 -10.07)"/><path class="cls-6" d="M835,891.48h4.07l12.57,34.08h-5.16L837,898.07l-9.44,27.49h-5.16Zm-6.78,22.06h17.93v4.54H828.23Z" transform="translate(-27.65 -10.07)"/><path class="cls-6" d="M835,953.27h4.07l12.57,34.08h-5.16L837,959.85l-9.44,27.5h-5.16Zm-6.78,22.05h17.93v4.55H828.23Z" transform="translate(-27.65 -10.07)"/><path class="cls-6" d="M874.06,722.26,886,706.42a12,12,0,0,0,1.6-2.83,7.53,7.53,0,0,0,.58-2.73v0a4.14,4.14,0,0,0-1.2-3.17,4.78,4.78,0,0,0-3.4-1.12,4.68,4.68,0,0,0-3.37,1.23,5.55,5.55,0,0,0-1.57,3.48v0h-5v0a12.91,12.91,0,0,1,1.72-5,8.8,8.8,0,0,1,3.37-3.16,10,10,0,0,1,4.76-1.09,11.93,11.93,0,0,1,5.2,1,7.33,7.33,0,0,1,3.28,3,9.63,9.63,0,0,1,1.12,4.8v0a10.57,10.57,0,0,1-.75,3.77,16.3,16.3,0,0,1-2.08,3.8l-9.87,13.4h12.89v4.55H874.06Z" transform="translate(-27.65 -10.07)"/><path class="cls-6" d="M901.63,725.55a7.75,7.75,0,0,1-3.25-3.51,12.78,12.78,0,0,1-1.11-5.57v0a19.64,19.64,0,0,1,.44-4,23.73,23.73,0,0,1,1.29-4.1c.09-.23.2-.46.31-.69s.21-.45.32-.67L907,692.33h5.16l-8.7,17,0-.84a4.23,4.23,0,0,1,1.72-1.71,5.37,5.37,0,0,1,2.62-.61,8.34,8.34,0,0,1,4.55,1.2,7.45,7.45,0,0,1,2.88,3.48,13.75,13.75,0,0,1,1,5.49v0a13,13,0,0,1-1.11,5.62,7.84,7.84,0,0,1-3.26,3.56,11.46,11.46,0,0,1-10.27,0Zm8.63-4.79a5.9,5.9,0,0,0,1.23-4v0a6.75,6.75,0,0,0-1.29-4.42,4.5,4.5,0,0,0-3.68-1.56,3.89,3.89,0,0,0-3.3,1.57,7.32,7.32,0,0,0-1.17,4.43v0a5.85,5.85,0,0,0,1.23,4,5,5,0,0,0,7,0Z" transform="translate(-27.65 -10.07)"/><path class="cls-6" d="M874.06,641.33,886,625.48a11.91,11.91,0,0,0,1.6-2.82,7.62,7.62,0,0,0,.58-2.73v0a4.12,4.12,0,0,0-1.2-3.16,4.78,4.78,0,0,0-3.4-1.13,4.68,4.68,0,0,0-3.37,1.23,5.55,5.55,0,0,0-1.57,3.48v0h-5v0a12.81,12.81,0,0,1,1.72-5,8.82,8.82,0,0,1,3.37-3.17,10.1,10.1,0,0,1,4.76-1.09,11.79,11.79,0,0,1,5.2,1.05,7.26,7.26,0,0,1,3.28,3,9.64,9.64,0,0,1,1.12,4.81v0a10.57,10.57,0,0,1-.75,3.77,16.1,16.1,0,0,1-2.08,3.8l-9.87,13.41h12.89v4.54H874.06Z" transform="translate(-27.65 -10.07)"/><path class="cls-6" d="M903.92,644.65a8.54,8.54,0,0,1-3.62-3.31,9.56,9.56,0,0,1-1.28-5v-.57a9.59,9.59,0,0,1,1.28-4.8,8.58,8.58,0,0,1,3.41-3.4,7.33,7.33,0,0,1-2.89-2.85,7.61,7.61,0,0,1-1.09-3.92V620a9.15,9.15,0,0,1,1.19-4.7,8.08,8.08,0,0,1,3.38-3.14,12,12,0,0,1,10.12,0,8.08,8.08,0,0,1,3.38,3.14A9.15,9.15,0,0,1,919,620v.82a7.6,7.6,0,0,1-1.11,4,7.41,7.41,0,0,1-2.94,2.81A8.85,8.85,0,0,1,918.4,631a9.44,9.44,0,0,1,1.3,4.79v.57a9.56,9.56,0,0,1-1.28,5,8.54,8.54,0,0,1-3.62,3.31,13.13,13.13,0,0,1-10.88,0Zm8.37-4.07a4.77,4.77,0,0,0,2-1.84,5.33,5.33,0,0,0,.69-2.73v-.33a5.39,5.39,0,0,0-.69-2.76,4.77,4.77,0,0,0-2-1.84,6.93,6.93,0,0,0-5.86,0,4.75,4.75,0,0,0-2,1.86,5.39,5.39,0,0,0-.69,2.76v.35a5.26,5.26,0,0,0,.69,2.72,4.73,4.73,0,0,0,2,1.82,7,7,0,0,0,5.86,0Zm-.4-15.37a4.17,4.17,0,0,0,1.71-1.77,5.51,5.51,0,0,0,.61-2.65v-.32a5.07,5.07,0,0,0-.61-2.53,4.06,4.06,0,0,0-1.71-1.7,5.63,5.63,0,0,0-5.06,0,4.06,4.06,0,0,0-1.71,1.7,5.12,5.12,0,0,0-.61,2.55v.35a5.42,5.42,0,0,0,.61,2.62,4.24,4.24,0,0,0,1.71,1.75,5.47,5.47,0,0,0,5.06,0Z" transform="translate(-27.65 -10.07)"/><path class="cls-6" d="M878.35,566.66a8.64,8.64,0,0,1-3.5-3,11,11,0,0,1-1.68-4.77h4.88a5.1,5.1,0,0,0,.91,2.39,4.28,4.28,0,0,0,1.82,1.4,6.92,6.92,0,0,0,2.61.45,5.09,5.09,0,0,0,3.68-1.26,4.69,4.69,0,0,0,1.31-3.56v-1a5.72,5.72,0,0,0-1.24-4,4.46,4.46,0,0,0-3.51-1.4h-2.42v-4.55h2.42a4,4,0,0,0,3.09-1.19,4.82,4.82,0,0,0,1.1-3.38v-1a4.13,4.13,0,0,0-1.16-3.12,4.6,4.6,0,0,0-3.29-1.1,5,5,0,0,0-2.18.46,4.11,4.11,0,0,0-1.63,1.4,6.36,6.36,0,0,0-1,2.38h-4.86A12.65,12.65,0,0,1,875.5,537a8.67,8.67,0,0,1,3.3-3,9.77,9.77,0,0,1,4.57-1,9.43,9.43,0,0,1,6.82,2.32,8.62,8.62,0,0,1,2.41,6.54v.56a7.36,7.36,0,0,1-1.38,4.45,7.81,7.81,0,0,1-3.91,2.77,6.92,6.92,0,0,1,4.32,2.74,9.09,9.09,0,0,1,1.53,5.44v.56a10.6,10.6,0,0,1-1.14,5.09,7.68,7.68,0,0,1-3.34,3.21,13,13,0,0,1-10.33.06Z" transform="translate(-27.65 -10.07)"/><path class="cls-6" d="M902.43,565.14A9.83,9.83,0,0,1,900,558V542.53q0-4.6,2.49-7.14c1.65-1.7,4.07-2.54,7.24-2.54s5.6.84,7.25,2.53,2.47,4.07,2.47,7.15V558a9.78,9.78,0,0,1-2.48,7.14q-2.49,2.54-7.24,2.54T902.43,565.14Zm11-3.31a5.51,5.51,0,0,0,1.2-3.81V542.53a5.52,5.52,0,0,0-1.19-3.81,6,6,0,0,0-7.5,0,5.48,5.48,0,0,0-1.2,3.81V558a5.51,5.51,0,0,0,1.21,3.81,6,6,0,0,0,7.48,0Z" transform="translate(-27.65 -10.07)"/><path class="cls-6" d="M879.09,496a8.55,8.55,0,0,1-3.5-3,11,11,0,0,1-1.68-4.77h4.88a5.1,5.1,0,0,0,.91,2.39,4.28,4.28,0,0,0,1.82,1.4,6.92,6.92,0,0,0,2.61.45,5.09,5.09,0,0,0,3.68-1.26,4.7,4.7,0,0,0,1.31-3.56v-1a5.69,5.69,0,0,0-1.24-3.94,4.46,4.46,0,0,0-3.51-1.4H882v-4.55h2.42a4,4,0,0,0,3.09-1.19,4.82,4.82,0,0,0,1.1-3.38v-1.05a4.13,4.13,0,0,0-1.16-3.12,4.6,4.6,0,0,0-3.29-1.1,5,5,0,0,0-2.18.46,4.18,4.18,0,0,0-1.63,1.4,6.36,6.36,0,0,0-1,2.38h-4.85a12.32,12.32,0,0,1,1.77-4.78,8.57,8.57,0,0,1,3.29-3,9.77,9.77,0,0,1,4.57-1,9.43,9.43,0,0,1,6.82,2.32,8.62,8.62,0,0,1,2.41,6.54v.56a7.36,7.36,0,0,1-1.38,4.45,7.81,7.81,0,0,1-3.91,2.77,6.89,6.89,0,0,1,4.32,2.74,9.09,9.09,0,0,1,1.54,5.44v.56a10.6,10.6,0,0,1-1.15,5.09,7.68,7.68,0,0,1-3.34,3.21,11.74,11.74,0,0,1-5.29,1.1A11.52,11.52,0,0,1,879.09,496Z" transform="translate(-27.65 -10.07)"/><path class="cls-6" d="M900.19,492.52l11.88-15.85a11.39,11.39,0,0,0,1.6-2.82,7.41,7.41,0,0,0,.58-2.73v-.05a4.12,4.12,0,0,0-1.2-3.16,4.75,4.75,0,0,0-3.39-1.13,4.68,4.68,0,0,0-3.38,1.23,5.6,5.6,0,0,0-1.57,3.48v0h-5v0a12.81,12.81,0,0,1,1.73-5,8.7,8.7,0,0,1,3.36-3.16,10,10,0,0,1,4.76-1.09,11.79,11.79,0,0,1,5.2,1,7.31,7.31,0,0,1,3.28,3,9.64,9.64,0,0,1,1.13,4.81v0a10.63,10.63,0,0,1-.75,3.78,16.29,16.29,0,0,1-2.09,3.79l-9.87,13.41h12.9v4.55H900.19Z" transform="translate(-27.65 -10.07)"/><path class="cls-6" d="M879.09,422.91a8.62,8.62,0,0,1-3.5-3,11,11,0,0,1-1.68-4.77h4.88a5.14,5.14,0,0,0,.91,2.39,4.26,4.26,0,0,0,1.82,1.39,6.73,6.73,0,0,0,2.61.46,5,5,0,0,0,3.68-1.27,4.69,4.69,0,0,0,1.31-3.56v-1a5.74,5.74,0,0,0-1.24-3.95,4.46,4.46,0,0,0-3.51-1.39H882v-4.55h2.42a4,4,0,0,0,3.09-1.2,4.8,4.8,0,0,0,1.1-3.37V398a4.09,4.09,0,0,0-1.16-3.11,4.56,4.56,0,0,0-3.29-1.1,5.09,5.09,0,0,0-2.18.45,4.22,4.22,0,0,0-1.63,1.41,6.23,6.23,0,0,0-1,2.38h-4.85a12.41,12.41,0,0,1,1.76-4.78,8.69,8.69,0,0,1,3.3-3,9.89,9.89,0,0,1,4.57-1,9.47,9.47,0,0,1,6.82,2.32,8.65,8.65,0,0,1,2.41,6.54v.56a7.39,7.39,0,0,1-1.38,4.46,7.86,7.86,0,0,1-3.91,2.76,7,7,0,0,1,4.32,2.74A9.13,9.13,0,0,1,893.9,414v.56a10.57,10.57,0,0,1-1.14,5.09,7.57,7.57,0,0,1-3.34,3.21,13,13,0,0,1-10.33.06Z" transform="translate(-27.65 -10.07)"/><path class="cls-6" d="M900.23,414.23l11.44-24.68h4.92L905.44,414h16.71v4.43H900.23Zm14.7-10.67h4.66v20.07h-4.66Z" transform="translate(-27.65 -10.07)"/><path class="cls-6" d="M878.35,349.12a8.55,8.55,0,0,1-3.5-3,11,11,0,0,1-1.68-4.77h4.88a5.1,5.1,0,0,0,.91,2.39,4.28,4.28,0,0,0,1.82,1.4,6.92,6.92,0,0,0,2.61.45,5.09,5.09,0,0,0,3.68-1.26,4.71,4.71,0,0,0,1.31-3.57v-1a5.74,5.74,0,0,0-1.24-3.95,4.46,4.46,0,0,0-3.51-1.39h-2.42v-4.55h2.42a4,4,0,0,0,3.09-1.19,4.82,4.82,0,0,0,1.1-3.38V324.2a4.1,4.1,0,0,0-1.16-3.12,4.6,4.6,0,0,0-3.29-1.1,5,5,0,0,0-2.18.46,4.11,4.11,0,0,0-1.63,1.4,6.29,6.29,0,0,0-1,2.38h-4.85a12.47,12.47,0,0,1,1.76-4.78,8.59,8.59,0,0,1,3.3-3,9.77,9.77,0,0,1,4.57-1,9.43,9.43,0,0,1,6.82,2.33,8.61,8.61,0,0,1,2.41,6.53v.57a7.38,7.38,0,0,1-1.38,4.45,7.81,7.81,0,0,1-3.91,2.77,6.89,6.89,0,0,1,4.32,2.74,9.09,9.09,0,0,1,1.54,5.44v.56a10.53,10.53,0,0,1-1.15,5.08,7.57,7.57,0,0,1-3.34,3.21,12.89,12.89,0,0,1-10.33.06Z" transform="translate(-27.65 -10.07)"/><path class="cls-6" d="M903.62,349a7.88,7.88,0,0,1-3.25-3.52,12.73,12.73,0,0,1-1.11-5.56v0a19.54,19.54,0,0,1,.44-4,23.46,23.46,0,0,1,1.29-4.1c.1-.24.2-.47.31-.69l.33-.67,7.4-14.67h5.16l-8.7,17,0-.85a4.14,4.14,0,0,1,1.71-1.71,5.48,5.48,0,0,1,2.62-.61,8.34,8.34,0,0,1,4.55,1.2,7.43,7.43,0,0,1,2.88,3.48,13.79,13.79,0,0,1,1,5.5v0a12.86,12.86,0,0,1-1.12,5.62A7.84,7.84,0,0,1,913.9,349a11.48,11.48,0,0,1-10.28,0Zm8.63-4.79a5.87,5.87,0,0,0,1.24-4v0a6.74,6.74,0,0,0-1.29-4.41,4.51,4.51,0,0,0-3.68-1.56,3.87,3.87,0,0,0-3.31,1.57,7.3,7.3,0,0,0-1.17,4.43v0a5.86,5.86,0,0,0,1.23,4,5.06,5.06,0,0,0,7,0Z" transform="translate(-27.65 -10.07)"/><path class="cls-6" d="M1170.67,734.14a8.57,8.57,0,0,1-3.51-3,10.88,10.88,0,0,1-1.67-4.77h4.87a5.1,5.1,0,0,0,.92,2.39,4.25,4.25,0,0,0,1.81,1.4,7,7,0,0,0,2.62.45,5.12,5.12,0,0,0,3.68-1.26,4.74,4.74,0,0,0,1.31-3.56v-1a5.74,5.74,0,0,0-1.24-3.94,4.47,4.47,0,0,0-3.52-1.4h-2.41v-4.55h2.41a4,4,0,0,0,3.09-1.19,4.78,4.78,0,0,0,1.11-3.38v-1a4.13,4.13,0,0,0-1.16-3.12,4.65,4.65,0,0,0-3.3-1.1,5,5,0,0,0-2.18.46,4.18,4.18,0,0,0-1.63,1.4,6.53,6.53,0,0,0-1,2.38h-4.85a12.32,12.32,0,0,1,1.77-4.78,8.64,8.64,0,0,1,3.29-3,9.77,9.77,0,0,1,4.57-1,9.43,9.43,0,0,1,6.82,2.32,8.63,8.63,0,0,1,2.42,6.54v.56a7.3,7.3,0,0,1-1.39,4.45,7.77,7.77,0,0,1-3.91,2.77,6.89,6.89,0,0,1,4.32,2.74,9,9,0,0,1,1.54,5.44v.56a10.49,10.49,0,0,1-1.15,5.09,7.62,7.62,0,0,1-3.34,3.21,11.7,11.7,0,0,1-5.28,1.1A11.46,11.46,0,0,1,1170.67,734.14Z" transform="translate(-27.65 -10.07)"/><path class="cls-6" d="M1204.35,717.91l0,.85a3.52,3.52,0,0,1-1.77,1.58,7,7,0,0,1-2.8.5,7.53,7.53,0,0,1-4.29-1.24,8.13,8.13,0,0,1-2.87-3.5,12.66,12.66,0,0,1-1-5.24v0a12.94,12.94,0,0,1,1.12-5.65,7.82,7.82,0,0,1,3.25-3.56,10.2,10.2,0,0,1,5.15-1.22,10,10,0,0,1,5.13,1.24,8,8,0,0,1,3.25,3.61,13.31,13.31,0,0,1,1.11,5.69v0a17.85,17.85,0,0,1-.47,3.9,24.58,24.58,0,0,1-1.33,4.11c-.1.21-.19.41-.28.62s-.2.42-.31.62l-7.27,14.61h-5.15Zm.22-2.95a6.64,6.64,0,0,0,1.23-4.29v0a6.32,6.32,0,0,0-1.23-4.17,4.26,4.26,0,0,0-3.48-1.48,4.31,4.31,0,0,0-3.51,1.48,6.36,6.36,0,0,0-1.23,4.19v0a6.6,6.6,0,0,0,1.23,4.27,4.27,4.27,0,0,0,3.51,1.51A4.2,4.2,0,0,0,1204.57,715Z" transform="translate(-27.65 -10.07)"/><path class="cls-6" d="M1166.42,626.4l11.44-24.68h4.92l-11.15,24.4h16.71v4.43h-21.92Zm14.7-10.67h4.66V635.8h-4.66Z" transform="translate(-27.65 -10.07)"/><path class="cls-6" d="M1201.25,635.77h-4.78V606.9l-4.85,3v-4.94l4.85-3.24h4.78Z" transform="translate(-27.65 -10.07)"/><path class="cls-6" d="M1166.42,530.63,1177.86,506h4.92l-11.15,24.39h16.71v4.43h-21.92Zm14.7-10.67h4.66V540h-4.66Z" transform="translate(-27.65 -10.07)"/><path class="cls-6" d="M1198,539.31a8.62,8.62,0,0,1-3.5-3,10.93,10.93,0,0,1-1.68-4.77h4.88a5.18,5.18,0,0,0,.91,2.39,4.26,4.26,0,0,0,1.82,1.39,6.73,6.73,0,0,0,2.61.46,5,5,0,0,0,3.68-1.27,4.69,4.69,0,0,0,1.31-3.56v-1a5.74,5.74,0,0,0-1.24-3.95,4.46,4.46,0,0,0-3.51-1.4h-2.42V520h2.42a4,4,0,0,0,3.09-1.2,4.8,4.8,0,0,0,1.1-3.37v-1.06a4.09,4.09,0,0,0-1.16-3.11,4.56,4.56,0,0,0-3.29-1.11,5.06,5.06,0,0,0-2.18.46,4.14,4.14,0,0,0-1.63,1.41,6.23,6.23,0,0,0-1,2.38h-4.86a12.58,12.58,0,0,1,1.77-4.78,8.69,8.69,0,0,1,3.3-3,9.77,9.77,0,0,1,4.57-1,9.44,9.44,0,0,1,6.82,2.32,8.65,8.65,0,0,1,2.41,6.54V515a7.39,7.39,0,0,1-1.38,4.46,7.84,7.84,0,0,1-3.92,2.76,7,7,0,0,1,4.33,2.74,9.13,9.13,0,0,1,1.53,5.44V531a10.57,10.57,0,0,1-1.14,5.09,7.57,7.57,0,0,1-3.34,3.21,11.77,11.77,0,0,1-5.29,1.1A11.6,11.6,0,0,1,1198,539.31Z" transform="translate(-27.65 -10.07)"/><path class="cls-6" d="M1166.42,434.14l11.44-24.68h4.92l-11.15,24.4h16.71v4.43h-21.92Zm14.7-10.66h4.66v20.06h-4.66Z" transform="translate(-27.65 -10.07)"/><path class="cls-6" d="M1199.13,442.86a8.34,8.34,0,0,1-3.26-2.93,11.7,11.7,0,0,1-1.67-4.62v0H1199v0a4.41,4.41,0,0,0,1.5,2.92,4.84,4.84,0,0,0,3.23,1,4.31,4.31,0,0,0,3.55-1.53,6.64,6.64,0,0,0,1.26-4.32v-2.86a6.63,6.63,0,0,0-1.26-4.31,4.31,4.31,0,0,0-3.55-1.53,4.53,4.53,0,0,0-2.39.7,6.83,6.83,0,0,0-2,2H1195V409.44h17.37V414h-12.59v7.66a7,7,0,0,1,2-1.13,6.74,6.74,0,0,1,2.25-.39,9.91,9.91,0,0,1,5,1.21,7.83,7.83,0,0,1,3.19,3.57,13.24,13.24,0,0,1,1.09,5.65v2.86a12.92,12.92,0,0,1-1.13,5.64,7.93,7.93,0,0,1-3.28,3.58,10.26,10.26,0,0,1-5.18,1.23A10.12,10.12,0,0,1,1199.13,442.86Z" transform="translate(-27.65 -10.07)"/><path class="cls-6" d="M1166.42,340.44l11.44-24.68h4.92l-11.15,24.4h16.71v4.43h-21.92Zm14.7-10.66h4.66v20.06h-4.66Z" transform="translate(-27.65 -10.07)"/><path class="cls-6" d="M1211.8,320,1203,349.81h-5.09l8.81-29.53H1198v4.9h-4.78v-9.44h18.54Z" transform="translate(-27.65 -10.07)"/><path class="cls-6" d="M1166.42,216.87l11.44-24.68h4.92l-11.15,24.39h16.71V221h-21.92Zm14.7-10.67h4.66v20.06h-4.66Z" transform="translate(-27.65 -10.07)"/><path class="cls-6" d="M1206.27,209.32l0,.84a3.47,3.47,0,0,1-1.77,1.58,7,7,0,0,1-2.8.51,7.61,7.61,0,0,1-4.29-1.24,8.16,8.16,0,0,1-2.87-3.51,12.63,12.63,0,0,1-1-5.24v0a13.11,13.11,0,0,1,1.12-5.65,7.84,7.84,0,0,1,3.26-3.56,10.23,10.23,0,0,1,5.14-1.22,10,10,0,0,1,5.13,1.24,8,8,0,0,1,3.25,3.61,13.35,13.35,0,0,1,1.11,5.7v0a17.26,17.26,0,0,1-.47,3.9,23.52,23.52,0,0,1-1.33,4.12c-.1.2-.19.41-.28.62s-.2.42-.31.62l-7.26,14.6h-5.16Zm.22-2.95a6.68,6.68,0,0,0,1.23-4.29v0a6.36,6.36,0,0,0-1.23-4.17,4.85,4.85,0,0,0-7,0,6.39,6.39,0,0,0-1.23,4.2v0a6.63,6.63,0,0,0,1.23,4.28,4.78,4.78,0,0,0,7,0Z" transform="translate(-27.65 -10.07)"/><path class="cls-6" d="M1399.14,732.48a8.51,8.51,0,0,1-3.51-3,10.88,10.88,0,0,1-1.67-4.77h4.87a5.1,5.1,0,0,0,.92,2.39,4.19,4.19,0,0,0,1.81,1.4,6.92,6.92,0,0,0,2.61.45,5.09,5.09,0,0,0,3.68-1.26,4.71,4.71,0,0,0,1.32-3.56v-1a5.7,5.7,0,0,0-1.25-3.94,4.45,4.45,0,0,0-3.51-1.4H1402v-4.55h2.41a4,4,0,0,0,3.09-1.19,4.78,4.78,0,0,0,1.1-3.38v-1.05a4.07,4.07,0,0,0-1.16-3.12,4.6,4.6,0,0,0-3.29-1.1,5,5,0,0,0-2.18.46,4.18,4.18,0,0,0-1.63,1.4,6.53,6.53,0,0,0-1,2.38h-4.85a12.32,12.32,0,0,1,1.77-4.78,8.56,8.56,0,0,1,3.29-3,9.77,9.77,0,0,1,4.57-1,9.43,9.43,0,0,1,6.82,2.32,8.63,8.63,0,0,1,2.42,6.54v.56a7.36,7.36,0,0,1-1.39,4.45,7.77,7.77,0,0,1-3.91,2.77,6.89,6.89,0,0,1,4.32,2.74,9,9,0,0,1,1.54,5.44v.56a10.42,10.42,0,0,1-1.15,5.08,7.64,7.64,0,0,1-3.34,3.22,11.71,11.71,0,0,1-5.29,1.1A11.45,11.45,0,0,1,1399.14,732.48Z" transform="translate(-27.65 -10.07)"/><path class="cls-6" d="M1425.29,732.36a8.63,8.63,0,0,1-3.62-3.32,9.56,9.56,0,0,1-1.28-5v-.56a9.6,9.6,0,0,1,1.28-4.81,8.58,8.58,0,0,1,3.41-3.4,7.37,7.37,0,0,1-2.89-2.84,7.67,7.67,0,0,1-1.09-3.93v-.82a9.15,9.15,0,0,1,1.19-4.7,8.08,8.08,0,0,1,3.38-3.14,12.09,12.09,0,0,1,10.12,0,8.08,8.08,0,0,1,3.38,3.14,9.15,9.15,0,0,1,1.19,4.7v.82a7.55,7.55,0,0,1-1.11,4,7.41,7.41,0,0,1-2.94,2.81,8.76,8.76,0,0,1,3.45,3.41,9.39,9.39,0,0,1,1.31,4.8v.56a9.56,9.56,0,0,1-1.28,5,8.63,8.63,0,0,1-3.62,3.32,13.23,13.23,0,0,1-10.88,0Zm8.37-4.08a4.77,4.77,0,0,0,2-1.84,5.33,5.33,0,0,0,.69-2.73v-.33a5.32,5.32,0,0,0-.69-2.75,4.71,4.71,0,0,0-2-1.84,6.83,6.83,0,0,0-5.86,0,4.67,4.67,0,0,0-2,1.85,5.41,5.41,0,0,0-.69,2.76v.35a5.24,5.24,0,0,0,.69,2.72,4.73,4.73,0,0,0,2,1.82,7,7,0,0,0,5.86,0Zm-.4-15.37a4.17,4.17,0,0,0,1.71-1.77,5.47,5.47,0,0,0,.61-2.64v-.33a5.07,5.07,0,0,0-.61-2.53,4.12,4.12,0,0,0-1.71-1.7,5.63,5.63,0,0,0-5.06,0,4.12,4.12,0,0,0-1.71,1.7,5.12,5.12,0,0,0-.61,2.55v.35a5.42,5.42,0,0,0,.61,2.62,4.24,4.24,0,0,0,1.71,1.75,5.4,5.4,0,0,0,5.06,0Z" transform="translate(-27.65 -10.07)"/><path class="cls-6" d="M1444.59,622.31,1456,597.63H1461L1449.8,622h16.71v4.43h-21.92Zm14.7-10.66H1464v20.06h-4.66Z" transform="translate(-27.65 -10.07)"/><path class="cls-6" d="M1474.84,629.48a9.79,9.79,0,0,1-2.47-7.12V606.87a9.81,9.81,0,0,1,2.48-7.14q2.49-2.54,7.24-2.54t7.26,2.53q2.48,2.53,2.47,7.15v15.49a9.83,9.83,0,0,1-2.48,7.14c-1.66,1.69-4.07,2.54-7.25,2.54S1476.49,631.19,1474.84,629.48Zm11-3.31a5.43,5.43,0,0,0,1.21-3.81V606.87a5.48,5.48,0,0,0-1.2-3.81,6,6,0,0,0-7.5,0,5.52,5.52,0,0,0-1.19,3.81v15.49a5.43,5.43,0,0,0,1.21,3.81,5.94,5.94,0,0,0,7.47,0Z" transform="translate(-27.65 -10.07)"/><path class="cls-6" d="M1444.6,528.57,1456,503.89H1461l-11.16,24.4h16.71v4.43H1444.6Zm14.69-10.67H1464V538h-4.67Z" transform="translate(-27.65 -10.07)"/><path class="cls-6" d="M1471.85,533.79,1483.74,518a12.11,12.11,0,0,0,1.6-2.82,7.41,7.41,0,0,0,.58-2.73v0a4.14,4.14,0,0,0-1.2-3.17,4.78,4.78,0,0,0-3.4-1.12,4.68,4.68,0,0,0-3.37,1.23,5.6,5.6,0,0,0-1.57,3.48v0h-5v0a12.65,12.65,0,0,1,1.73-5,8.65,8.65,0,0,1,3.36-3.17,10.1,10.1,0,0,1,4.76-1.09,11.79,11.79,0,0,1,5.2,1.05,7.26,7.26,0,0,1,3.28,3,9.64,9.64,0,0,1,1.13,4.81v0a10.57,10.57,0,0,1-.75,3.77,16.35,16.35,0,0,1-2.09,3.8l-9.87,13.41h12.89v4.54h-19.22Z" transform="translate(-27.65 -10.07)"/><path class="cls-6" d="M1444.6,434.14,1456,409.46H1461l-11.16,24.4h16.71v4.43H1444.6Zm14.69-10.66H1464v20.06h-4.67Z" transform="translate(-27.65 -10.07)"/><path class="cls-6" d="M1471.9,434.14l11.44-24.68h4.92l-11.16,24.4h16.71v4.43H1471.9Zm14.7-10.66h4.66v20.06h-4.66Z" transform="translate(-27.65 -10.07)"/><path class="cls-6" d="M1444.6,340.44,1456,315.76H1461l-11.16,24.4h16.71v4.43H1444.6Zm14.69-10.66H1464v20.06h-4.67Z" transform="translate(-27.65 -10.07)"/><path class="cls-6" d="M1476,349a7.82,7.82,0,0,1-3.25-3.52,12.73,12.73,0,0,1-1.11-5.56v0a18.86,18.86,0,0,1,.44-4,23.46,23.46,0,0,1,1.29-4.1,7.22,7.22,0,0,1,.31-.69c.1-.23.21-.45.32-.67l7.41-14.67h5.16l-8.7,17,0-.85a4.14,4.14,0,0,1,1.71-1.71,5.52,5.52,0,0,1,2.63-.61,8.34,8.34,0,0,1,4.55,1.2,7.55,7.55,0,0,1,2.88,3.48,13.8,13.8,0,0,1,1,5.5v0a13,13,0,0,1-1.11,5.62,7.86,7.86,0,0,1-3.26,3.57,11.46,11.46,0,0,1-10.27,0Zm8.63-4.79a5.92,5.92,0,0,0,1.23-4v0a6.74,6.74,0,0,0-1.29-4.41,4.5,4.5,0,0,0-3.68-1.56,3.87,3.87,0,0,0-3.3,1.57,7.3,7.3,0,0,0-1.17,4.43v0a5.86,5.86,0,0,0,1.23,4,5.06,5.06,0,0,0,7,0Z" transform="translate(-27.65 -10.07)"/><path class="cls-6" d="M1444.6,216.86,1456,192.19H1461l-11.16,24.39h16.71V221H1444.6Zm14.69-10.66H1464v20.06h-4.67Z" transform="translate(-27.65 -10.07)"/><path class="cls-6" d="M1476.92,225.42a8.59,8.59,0,0,1-3.63-3.32,9.56,9.56,0,0,1-1.27-5v-.56a9.58,9.58,0,0,1,1.27-4.8,8.54,8.54,0,0,1,3.42-3.4,7.49,7.49,0,0,1-2.9-2.85,7.62,7.62,0,0,1-1.09-3.93v-.82a9.08,9.08,0,0,1,1.2-4.7,8.12,8.12,0,0,1,3.37-3.14,12.11,12.11,0,0,1,10.13,0,8.18,8.18,0,0,1,3.37,3.14,9.08,9.08,0,0,1,1.2,4.7v.82a7.47,7.47,0,0,1-1.12,4,7.37,7.37,0,0,1-2.94,2.82,8.79,8.79,0,0,1,3.46,3.41,9.35,9.35,0,0,1,1.3,4.79v.56a9.56,9.56,0,0,1-1.28,5,8.57,8.57,0,0,1-3.62,3.32,13.21,13.21,0,0,1-10.87,0Zm8.36-4.08a4.71,4.71,0,0,0,2-1.84,5.33,5.33,0,0,0,.69-2.73v-.33a5.37,5.37,0,0,0-.69-2.75,4.71,4.71,0,0,0-2-1.84,6.83,6.83,0,0,0-5.86,0,4.71,4.71,0,0,0-2,1.85,5.45,5.45,0,0,0-.69,2.77v.35a5.26,5.26,0,0,0,.69,2.72,4.68,4.68,0,0,0,2,1.81,6.39,6.39,0,0,0,2.93.65A6.24,6.24,0,0,0,1485.28,221.34Zm-.4-15.36a4.38,4.38,0,0,0,1.72-1.77,5.66,5.66,0,0,0,.61-2.65v-.33a5.23,5.23,0,0,0-.61-2.53,4.26,4.26,0,0,0-1.72-1.7,5.17,5.17,0,0,0-2.53-.6,5.23,5.23,0,0,0-2.53.6,4.3,4.3,0,0,0-1.71,1.7,5.29,5.29,0,0,0-.61,2.56v.35a5.52,5.52,0,0,0,.61,2.61,4.39,4.39,0,0,0,1.71,1.76,5.13,5.13,0,0,0,2.53.62A5.07,5.07,0,0,0,1484.88,206Z" transform="translate(-27.65 -10.07)"/><path class="cls-6" d="M1450,124.69a8.28,8.28,0,0,1-3.26-2.93,11.7,11.7,0,0,1-1.68-4.62v0h4.79v0a4.41,4.41,0,0,0,1.5,2.92,4.8,4.8,0,0,0,3.23,1,4.34,4.34,0,0,0,3.55-1.53,6.64,6.64,0,0,0,1.25-4.32v-2.86a6.63,6.63,0,0,0-1.25-4.31,4.34,4.34,0,0,0-3.55-1.53,4.5,4.5,0,0,0-2.39.7,6.74,6.74,0,0,0-2,2h-4.36v-18h17.37v4.55H1450.6v7.66a6.85,6.85,0,0,1,2-1.13,6.66,6.66,0,0,1,2.25-.39,9.91,9.91,0,0,1,5.05,1.21,7.83,7.83,0,0,1,3.19,3.57,13.4,13.4,0,0,1,1.09,5.65v2.86a12.92,12.92,0,0,1-1.13,5.64,7.93,7.93,0,0,1-3.28,3.58,10.29,10.29,0,0,1-5.18,1.23A10.06,10.06,0,0,1,1450,124.69Z" transform="translate(-27.65 -10.07)"/><path class="cls-6" d="M1473.67,123.14a9.79,9.79,0,0,1-2.47-7.12V100.53a9.79,9.79,0,0,1,2.48-7.14c1.66-1.7,4.07-2.54,7.24-2.54s5.61.84,7.26,2.53,2.47,4.07,2.47,7.15V116a9.83,9.83,0,0,1-2.48,7.14c-1.66,1.69-4.07,2.54-7.25,2.54S1475.32,124.85,1473.67,123.14Zm11-3.31a5.46,5.46,0,0,0,1.21-3.81V100.53a5.48,5.48,0,0,0-1.2-3.81,6,6,0,0,0-7.5,0,5.52,5.52,0,0,0-1.19,3.81V116a5.46,5.46,0,0,0,1.21,3.81,5.94,5.94,0,0,0,7.47,0Z" transform="translate(-27.65 -10.07)"/></g></svg>