<svg xmlns="http://www.w3.org/2000/svg" viewBox="0 0 144.26 139.08"><defs><style>.cls-1{fill:none;}.cls-1,.cls-2,.cls-3,.cls-4,.cls-5{stroke:#fff;stroke-miterlimit:10;}.cls-2{fill:#f0eace;}.cls-2,.cls-3,.cls-4,.cls-5{stroke-width:0.5px;}.cls-3{fill:#c96;}.cls-4{fill:#8cbd61;}.cls-5{fill:#bd6060;}</style></defs><title>genplan</title><g id="Слой_2" data-name="Слой 2"><path class="cls-1" d="M367.53,202.56h4l8.46-27.74,25.21,1a5.71,5.71,0,0,0,4.68-1.78,4.73,4.73,0,0,0,.94-1.91l9.51-.1,14.49-7.66,3-30.52-.9-46.14,7.79-13-22.15.45L409,82.64l-22,22.48-61.08-6.65-12.2,20.24-11.93,48.76,2.55,11.36,11.55,11.56,12.45,7.66s12.7,12.06,11.62,14.74h6.45a6.89,6.89,0,0,1,1.5-2.84,7.07,7.07,0,0,1,2.58-1.82,6.62,6.62,0,0,1,1.85-.44c1.84-.2,6.5-.6,12.74-1.06a4,4,0,0,0,2.43-4.07Z" transform="translate(-301.29 -74.21)"/></g><g id="Слой_4" data-name="Слой 4"><path class="cls-2" d="M328.85,119.32l4.81.2-.05,78.7,4.65,4.87h24.86l.2-82.62h4.49v50.4l37.9.8L412,81l5.36-3-6.59,94.09s-1.34,4.23-5.62,3.69l-25.21-1-12.41-.21v28l0,1.1a2.92,2.92,0,0,1-.25,1.19A3.42,3.42,0,0,1,365,206.6l-12.67,1.09a7,7,0,0,0-5.93,5.1H340s-.69-3.8-2.91-5.49L329,198.53Z" transform="translate(-301.29 -74.21)"/></g><g id="Слой_3" data-name="Слой 3"><polygon class="cls-3" points="8.45 109.41 27.68 109.75 27.68 124.01 14.96 116.39 8.45 109.41"/><polygon class="cls-3" points="27.56 82.05 3.34 81.71 5.63 72.38 27.56 72.77 27.56 82.05"/><polygon class="cls-3" points="27.56 63.5 27.56 72.77 5.63 72.38 7.8 63.5 27.56 63.5"/><polygon class="cls-3" points="27.56 54.43 27.56 63.5 7.8 63.5 10.02 54.43 27.56 54.43"/><polygon class="cls-3" points="27.56 45.11 27.56 54.43 10.09 54.14 12.41 44.67 27.56 45.11"/><polygon class="cls-3" points="30.02 45.24 12.41 44.67 24.64 24.26 30.02 24.85 30.02 45.24"/><polygon class="cls-3" points="47.22 45.75 30.02 45.24 30.02 24.85 47.22 26.72 47.22 45.75"/><polygon class="cls-3" points="32.53 54.65 32.36 45.31 47.22 45.75 47.22 55.03 32.53 54.65"/><polygon class="cls-3" points="64.19 46.26 47.22 45.75 47.37 26.74 64.19 28.39 64.19 46.26"/><polygon class="cls-3" points="62.02 55.37 47.22 55.03 47.22 45.75 62.02 46.26 62.02 55.37"/><polygon class="cls-3" points="32.32 119.62 46.92 119.62 46.92 110.22 32.33 110.01 32.32 119.62"/><polygon class="cls-3" points="61.84 119.97 46.92 119.62 46.92 110.22 61.84 110.22 61.84 119.97"/><polygon class="cls-3" points="61.84 101.59 61.84 110.22 46.92 110.22 46.92 101.24 61.84 101.59"/><polygon class="cls-3" points="32.33 100.94 46.92 101.24 46.92 110.22 32.33 110.01 32.33 100.94"/><polygon class="cls-3" points="46.92 91.84 46.92 101.24 32.33 100.94 32.34 91.84 46.92 91.84"/><polygon class="cls-3" points="61.64 92.31 46.92 91.84 46.92 101.24 61.84 101.59 61.64 92.31"/><polygon class="cls-3" points="61.84 83.03 61.64 92.31 46.92 91.84 46.92 82.73 61.84 83.03"/><polygon class="cls-3" points="32.34 82.48 46.92 82.73 46.92 91.84 32.34 91.84 32.34 82.48"/><polygon class="cls-3" points="66.51 65.14 82.79 65.14 81.81 74.56 66.51 74.56 66.51 65.14"/><polygon class="cls-3" points="85.73 30.91 109 31.25 110.7 6.77 107.68 8.43 85.73 30.91"/><polygon class="cls-3" points="114.14 31.25 135.93 31.6 135.66 17.81 115.11 17.48 114.14 31.25"/><polygon class="cls-3" points="116.06 3.81 115.11 17.48 135.66 17.81 135.58 13.48 143.37 0.52 121.22 0.96 116.06 3.81"/></g><g id="Слой_6" data-name="Слой 6"><polygon class="cls-4" points="1.11 90.81 27.56 91.35 27.56 82.05 3.34 81.71 1.11 90.81"/><polygon class="cls-4" points="2.03 100.01 0.51 93.26 1.27 90.61 27.42 91.35 27.56 100.51 2.03 100.01"/><polygon class="cls-4" points="3.04 104.48 2.03 100.01 27.42 100.51 27.56 109.54 7.85 109.41 3.04 104.48"/><polygon class="cls-4" points="32.32 124.01 32.32 119.62 46.81 119.69 46.81 128.8 36.96 128.88 32.32 124.01"/><polygon class="cls-4" points="61.84 119.97 46.81 119.69 46.81 128.8 61.82 128.8 61.84 119.97"/><polygon class="cls-4" points="47.15 73.37 32.35 73.37 32.34 82.48 47.15 82.74 47.15 73.37"/><polygon class="cls-4" points="61.84 73.69 47.26 73.37 47.15 82.74 61.84 83.03 61.84 73.69"/><polygon class="cls-4" points="61.84 64.52 47.15 64.22 47.15 73.37 61.84 73.69 61.84 64.52"/><polygon class="cls-4" points="32.35 63.92 47.15 64.22 47.15 73.2 32.35 73.37 32.35 63.92"/><polygon class="cls-4" points="32.53 54.65 32.35 63.92 47.15 64.22 47.22 55.03 32.53 54.65"/><polygon class="cls-4" points="62.02 55.37 47.22 55.03 47.15 64.22 61.84 64.52 62.02 55.37"/><path class="cls-4" d="M365.49,120.47V102.6L387,105.12l-1.25,16.14L368,121.11v-.64Z" transform="translate(-301.29 -74.21)"/><polygon class="cls-4" points="66.51 55.8 83.51 56.07 84.47 47.05 66.51 46.9 66.51 55.8"/><polygon class="cls-4" points="66.51 65.14 82.79 65.14 83.51 56.07 66.51 55.8 66.51 65.14"/><polygon class="cls-4" points="66.7 83.58 80.96 83.58 81.6 74.56 66.7 74.56 66.7 83.58"/><polygon class="cls-4" points="66.7 96.54 66.7 83.58 80.96 83.58 79.81 96.84 66.7 96.54"/><polygon class="cls-4" points="104.14 97.25 79.81 96.84 80.96 83.58 105.13 83.82 104.14 97.25"/><polygon class="cls-4" points="106.21 71.6 82.12 71.6 80.96 83.58 105.13 83.82 106.21 71.6"/><polygon class="cls-4" points="107.04 59.53 83.26 59.22 82.12 71.6 106.21 71.6 107.04 59.53"/><polygon class="cls-4" points="107.87 47.66 84.47 47.05 83.26 59.22 107.04 59.53 107.87 47.66"/><polygon class="cls-4" points="109 31.25 107.87 47.66 84.47 47.05 85.85 30.91 109 31.25"/><polygon class="cls-4" points="135.93 47.66 113.01 47.4 114.14 31.25 136.07 31.6 135.93 47.66"/><polygon class="cls-4" points="136.43 60.07 112.16 59.53 113.01 47.4 136.07 47.66 136.43 60.07"/><polygon class="cls-4" points="135.28 71.75 111.3 71.75 112.16 59.53 136.43 60.07 135.28 71.75"/><polygon class="cls-4" points="134.06 84.17 110.46 83.82 111.3 71.75 135.28 71.75 134.06 84.17"/><polygon class="cls-4" points="109.79 97.64 118.85 97.64 133.49 89.93 133.89 84.17 110.46 83.82 109.79 97.64"/></g><g id="Слой_7" data-name="Слой 7"><polygon class="cls-5" points="66.39 128.35 70.18 128.34 72.74 119.97 66.39 119.97 66.39 128.35"/><polygon class="cls-5" points="75.46 111.04 72.74 119.97 66.39 119.97 66.39 111.04 75.46 111.04"/><polygon class="cls-5" points="78.64 100.6 75.46 111.04 66.39 111.04 66.39 100.6 78.64 100.6"/></g></svg>