<svg width="60" height="60" viewBox="0 0 60 60" fill="none" xmlns="http://www.w3.org/2000/svg">
<g clip-path="url(#clip0)">
<mask id="mask0" mask-type="alpha" maskUnits="userSpaceOnUse" x="5" y="2" width="50" height="58">
<path d="M54.0787 34.4218C54.1627 46.6258 45.3067 57.1738 33.2347 58.8778C18.0307 61.0138 6.61875 49.9978 5.17875 37.6738C4.61475 32.8498 5.39475 28.3018 7.38675 23.9218C7.60275 23.4418 7.85475 22.9858 8.15475 22.5538C8.74275 21.7258 9.43875 21.7138 10.0507 22.5178C10.6867 23.3458 11.2267 24.2458 11.8747 25.0618C15.4747 29.6338 20.1907 32.5018 25.8907 33.3178C34.9987 34.6138 42.4507 31.4818 48.0307 24.0898C48.3787 23.6218 48.6667 23.0938 49.0147 22.6258C49.7587 21.6418 50.5147 21.6658 51.1267 22.7458C51.5827 23.5378 51.9427 24.3778 52.3027 25.2178C53.5747 28.3018 54.1507 31.4938 54.0787 34.4218ZM52.0867 37.5898C49.7947 37.7938 47.9947 37.6258 46.4347 36.4618C44.4067 34.9378 42.3547 34.9258 40.2907 36.4018C37.8187 38.1778 35.2147 38.0938 32.7667 36.5338C30.4987 35.0938 28.4587 35.0218 26.2627 36.5578C24.6307 37.6978 22.7707 38.0218 20.8507 37.3858C19.9987 37.0978 19.2187 36.6058 18.4507 36.1378C16.7347 35.0818 14.9467 34.9138 13.2907 36.0778C11.5987 37.2538 9.82275 37.8178 7.78275 37.6858C7.62675 37.6738 7.44675 37.8298 7.15875 37.9738C7.32675 38.7898 7.43475 39.6298 7.65075 40.4218C7.92675 41.4298 8.33475 41.7178 9.36675 41.4898C10.1827 41.3098 11.0227 41.0218 11.7067 40.5658C14.4667 38.7058 17.1427 38.6458 19.8667 40.6018C21.6547 41.8738 23.5387 41.8978 25.3387 40.6378C28.2187 38.6098 31.0267 38.7178 33.8707 40.6978C35.6227 41.9218 37.4347 41.8378 39.1627 40.6258C41.9587 38.6578 44.7187 38.6698 47.5027 40.6258C48.5467 41.3698 49.6867 41.7418 51.1507 41.3938C51.4387 40.2418 51.7267 39.0778 52.0867 37.5898ZM50.3347 43.7458C50.0107 43.5658 49.8427 43.4098 49.6747 43.3858C48.2707 43.2538 47.0827 42.6778 45.9187 41.8858C44.1187 40.6738 42.1627 40.6858 40.4707 42.0778C38.4907 43.7218 34.4827 43.7338 32.4067 42.1018C30.4627 40.5778 28.7467 40.6378 26.6707 42.1018C25.1347 43.1818 23.4667 43.4818 21.6547 43.3018C20.3587 43.1818 19.3027 42.5578 18.2827 41.8378C16.8667 40.8298 15.2467 40.6738 13.8427 41.5258C12.2827 42.4738 10.7347 43.3138 8.63475 43.5418C9.35475 44.8018 9.95475 45.8338 10.4707 46.7338C10.8067 46.7338 10.8907 46.7578 10.9387 46.7338C11.2267 46.5778 11.5147 46.4338 11.7907 46.2538C14.5507 44.3938 17.2507 44.4778 19.9627 46.3858C21.7267 47.6218 23.5867 47.5978 25.4347 46.3258C28.1707 44.4298 30.8947 44.4058 33.6187 46.2778C35.5867 47.6218 37.4467 47.5378 39.4147 46.1938C41.9227 44.4658 44.5387 44.4898 47.1307 46.1098C47.5507 46.3738 47.9947 46.5898 48.5587 46.8898C49.2067 45.7738 49.7587 44.7778 50.3347 43.7458ZM11.9707 48.6538C12.8227 50.1898 13.8427 51.0178 15.6307 50.7418C17.1067 50.5138 18.4507 51.1138 19.6747 51.9298C21.9427 53.4418 23.4307 53.4898 25.6147 52.0138C28.2427 50.2378 30.8587 50.1898 33.4507 52.0018C35.4787 53.4178 37.4347 53.4178 39.4267 51.9898C40.6867 51.0898 42.1027 50.4898 43.6507 50.7418C45.4987 51.0418 46.3747 50.0218 47.1547 48.6898C44.5267 46.3738 42.9187 46.2178 40.2547 47.9938C37.7587 49.6618 35.1667 49.7218 32.7307 48.0418C30.5587 46.5538 28.6027 46.4458 26.4307 47.9818C23.9827 49.6978 21.4267 49.6138 18.9067 48.0418C16.1107 46.2778 14.6467 46.3978 11.9707 48.6538ZM16.3987 52.8298C23.7667 58.9618 36.0427 58.5538 42.6427 52.7098C41.8627 52.9498 41.0707 53.2138 40.3987 53.6578C37.6867 55.4578 35.0347 55.4698 32.3827 53.5738C30.5107 52.2418 28.6027 52.2778 26.7427 53.5738C23.9947 55.4818 21.3067 55.4938 18.5707 53.5498C17.9587 53.1058 17.3227 52.6018 16.3987 52.8298ZM7.09875 31.7458C7.00275 32.7778 6.91875 33.5458 6.87075 34.3138C6.82275 35.1778 7.24275 35.6098 8.11875 35.7298C9.55875 35.9218 10.7827 35.5018 11.9587 34.6738C14.4187 32.9458 17.1187 32.9818 19.6387 34.5778C20.3467 35.0218 21.1027 35.4538 21.8947 35.6698C22.7107 35.8858 23.6227 35.9338 24.5707 35.0578C20.4547 34.1338 16.9987 32.3938 13.8067 29.9338C11.8747 31.5058 9.77475 32.2018 7.09875 31.7458ZM34.2547 35.1298C36.2707 36.1258 37.7707 35.8738 39.1147 34.9018C41.9827 32.8378 44.7787 32.8978 47.5987 34.9498C48.4747 35.5858 49.4707 35.8498 50.5507 35.7658C52.0267 35.6458 52.3987 35.2378 52.2787 33.7858C52.2307 33.1618 52.0507 32.5498 51.9067 31.7938C49.3267 32.2138 47.1547 31.5178 45.2587 29.9338C42.0307 32.5378 38.5267 34.1818 34.2547 35.1298ZM51.6667 29.6458C51.1387 27.9778 51.0787 26.3458 49.8067 25.0498C48.7747 26.2858 47.8387 27.4138 46.8667 28.5898C48.2827 29.7898 49.7107 30.3298 51.6667 29.6458ZM9.23475 25.0258C8.23875 26.5618 7.65075 28.0258 7.66275 29.7658C9.51075 30.2698 10.9267 29.7898 12.2227 28.5058C11.2387 27.3658 10.2907 26.2618 9.23475 25.0258Z" fill="black"/>
<path d="M26.7308 4.10985C26.8028 3.53385 26.8868 2.96985 26.9708 2.30985C28.4468 1.79385 29.9468 2.06985 31.4108 2.10585C31.7228 2.11785 32.1188 2.58585 32.2988 2.93385C32.4668 3.24585 32.4068 3.67785 32.6468 4.08585C32.7068 3.83385 32.8268 3.58185 32.8148 3.32985C32.7908 2.40585 33.2468 2.03385 34.1348 2.04585C35.0468 2.05785 35.9588 2.05785 36.8828 2.04585C37.6988 2.03385 38.1068 2.46585 38.1188 3.23385C38.1428 4.93785 38.1188 6.62985 38.1308 8.33385C38.1428 9.04185 37.7108 9.35385 37.1708 9.66585C37.0028 9.76185 36.8228 10.1698 36.8948 10.3258C37.0028 10.5658 37.3028 10.8178 37.5548 10.8898C37.9268 10.9978 38.3348 10.9618 38.7188 10.9378C39.6548 10.8898 40.3508 11.0458 40.5788 12.1858C40.6508 12.5818 41.2508 12.9178 41.6588 13.2058C43.0268 14.2138 44.4548 15.1258 45.7748 16.1818C47.0948 17.2378 47.1668 17.5258 46.4108 19.0018C42.9908 25.6738 37.5428 29.2858 30.0308 29.5858C22.6508 29.8858 15.7628 25.6258 12.7028 18.9778C12.0188 17.5018 12.0068 17.3098 13.1948 16.2778C14.2868 15.3538 15.4388 14.4898 16.6508 13.7218C17.7068 13.0498 18.7988 12.4978 18.9668 11.0338C20.0228 10.9498 20.9828 10.8658 22.1828 10.7698C22.0868 10.3258 22.0988 9.70185 21.8828 9.60585C20.9588 9.17385 20.9828 8.41785 20.9828 7.62585C20.9828 6.31785 20.9588 5.00985 20.9948 3.70185C21.0068 3.19785 21.1388 2.70585 21.2468 2.02185C22.3988 2.02185 23.4308 2.00985 24.4628 2.03385C24.9668 2.04585 25.4708 2.11785 25.9748 2.16585C26.1548 2.89785 26.2988 3.52185 26.4548 4.14585C26.5508 4.14585 26.6348 4.12185 26.7308 4.10985ZM18.6428 15.2098C18.4868 15.1258 18.3308 15.0418 18.1748 14.9578C16.8908 15.8938 15.5948 16.8298 14.3588 17.7298C16.5788 23.4778 22.7348 27.8218 29.6828 27.7618C36.9668 27.7138 42.7508 22.9498 44.7308 17.8138C43.5668 16.7098 42.3068 15.6898 40.4828 14.9218C40.4828 15.9298 40.4828 16.6378 40.4828 17.3458C40.4828 18.5818 40.5188 19.8298 40.4828 21.0658C40.4468 22.2418 40.2428 22.4338 39.1148 22.5178C38.4188 22.5778 37.7228 22.5898 37.0988 22.6138C36.5468 25.0378 36.5468 25.0498 34.2668 25.0498C31.0028 25.0618 27.7388 25.0618 24.4628 25.0618C22.5548 25.0618 22.4948 24.9898 22.1708 22.9738C22.1468 22.8658 22.0268 22.7698 21.8828 22.5658C21.5708 22.5538 21.1868 22.5298 20.8148 22.5178C18.6908 22.4458 18.6788 22.4458 18.6788 20.2618C18.6428 18.5818 18.6428 16.8898 18.6428 15.2098ZM34.9028 9.59385C31.2428 9.52185 27.7628 9.41385 24.1748 9.66585C24.1868 14.2738 24.0668 18.6658 24.2588 23.0698C27.9068 23.0698 31.3388 23.0698 34.9868 23.0698C34.9148 18.5338 35.1068 14.1418 34.9028 9.59385ZM30.1508 4.04985C29.7548 4.04985 29.3348 4.04985 28.9388 4.04985C28.4108 6.24585 28.3028 6.34185 26.1788 6.24585C25.6748 6.22185 25.1828 6.10185 24.7268 6.02985C24.2588 4.01385 24.2588 4.01385 23.0708 4.19385C23.0708 5.32185 23.0708 6.44985 23.0708 7.72185C27.4988 7.54185 31.7708 7.84185 36.1028 7.54185C36.1028 6.26985 36.1028 5.18985 36.1028 4.03785C35.6228 4.03785 35.2508 4.03785 34.8908 4.03785C34.7108 4.76985 34.5428 5.44185 34.3868 6.04185C31.0268 6.54585 30.8108 6.44985 30.1508 4.04985ZM38.5748 13.0138C37.5068 12.5818 36.8588 12.6418 36.8348 13.6978C36.7868 15.7138 36.8108 17.7418 36.8108 19.7578C36.8108 20.3458 36.9908 20.7778 37.7108 20.7298C38.3948 20.6938 38.5868 20.2978 38.5748 19.6858C38.5748 17.4778 38.5748 15.2698 38.5748 13.0138ZM22.0868 20.7058C22.0868 18.0058 22.0868 15.4498 22.0868 12.7738C21.5348 12.8098 21.1148 12.8458 20.6588 12.8818C20.6588 15.5098 20.6588 18.0058 20.6588 20.6218C21.1628 20.6458 21.5828 20.6698 22.0868 20.7058Z" fill="black"/>
<path d="M29.4189 20.4419C28.5789 20.4419 27.7269 20.4419 26.8869 20.4419C26.0349 20.4419 25.4709 20.0459 25.4829 19.1819C25.4949 17.3699 25.4469 15.5339 25.6629 13.7339C25.9029 11.8139 27.5709 10.5419 29.5029 10.5179C31.4229 10.4939 33.2109 11.7059 33.4509 13.6019C33.7029 15.5219 33.5829 17.4899 33.5709 19.4339C33.5709 20.1659 32.9949 20.3939 32.3469 20.4059C31.3749 20.4298 30.3909 20.4059 29.4189 20.4059C29.4189 20.4298 29.4189 20.4419 29.4189 20.4419ZM31.6749 18.4498C31.6749 17.0458 31.7109 15.8819 31.6629 14.7179C31.6149 13.4099 30.8229 12.5219 29.7189 12.4259C28.6389 12.3299 27.5829 13.1099 27.4149 14.3699C27.2349 15.7019 27.1389 17.0579 27.5469 18.4379C28.8909 18.4499 30.1629 18.4498 31.6749 18.4498Z" fill="black"/>
</mask>
<g mask="url(#mask0)">
<rect y="1" width="60" height="60" fill="#00A550"/>
</g>
</g>
<defs>
<clipPath id="clip0">
<rect width="60" height="60" fill="white"/>
</clipPath>
</defs>
</svg>
